<?xml version="1.0" encoding="utf-8"?>
<!DOCTYPE svg PUBLIC "-//W3C//DTD SVG 1.1//EN" "http://www.w3.org/Graphics/SVG/1.1/DTD/svg11.dtd">
<svg version="1.1" id="Layer_1" xmlns="http://www.w3.org/2000/svg" xmlns:xlink="http://www.w3.org/1999/xlink" x="0px" y="0px"
	 width="82px" height="23px" viewBox="0 0 82 23" enable-background="new 0 0 82 23" xml:space="preserve">
<rect fill="#F7F7F7" stroke="#989898" stroke-miterlimit="10" width="82" height="23"/>
<g>
	<path fill="#545554" d="M9.36,16.076l3.299-8.59h1.225l3.516,8.59h-1.295l-1.002-2.602H11.51l-0.943,2.602H9.36z M11.838,12.549
		h2.912l-0.896-2.379c-0.273-0.723-0.477-1.316-0.609-1.781c-0.109,0.551-0.264,1.098-0.463,1.641L11.838,12.549z"/>
	<path fill="#545554" d="M18.172,16.076V9.854h0.943v0.873c0.195-0.305,0.455-0.55,0.779-0.735s0.693-0.278,1.107-0.278
		c0.461,0,0.839,0.096,1.134,0.287s0.503,0.459,0.624,0.803c0.492-0.727,1.133-1.09,1.922-1.09c0.617,0,1.092,0.171,1.424,0.513
		s0.498,0.868,0.498,1.579v4.271h-1.049v-3.92c0-0.422-0.034-0.726-0.103-0.911s-0.192-0.335-0.372-0.448s-0.391-0.17-0.633-0.17
		c-0.438,0-0.801,0.146-1.09,0.437s-0.434,0.757-0.434,1.397v3.615H21.87v-4.043c0-0.469-0.086-0.82-0.258-1.055
		s-0.453-0.352-0.844-0.352c-0.297,0-0.571,0.078-0.823,0.234s-0.435,0.385-0.548,0.686s-0.17,0.734-0.17,1.301v3.229H18.172z"/>
	<path fill="#545554" d="M28.168,18.461V9.854h0.961v0.809c0.227-0.316,0.482-0.554,0.768-0.712s0.631-0.237,1.037-0.237
		c0.531,0,1,0.137,1.406,0.41s0.713,0.659,0.92,1.157s0.311,1.044,0.311,1.638c0,0.637-0.114,1.21-0.343,1.72
		s-0.561,0.9-0.996,1.172s-0.894,0.407-1.374,0.407c-0.352,0-0.667-0.074-0.946-0.223s-0.509-0.336-0.688-0.563v3.029H28.168z
		 M29.124,13c0,0.801,0.162,1.393,0.486,1.775s0.717,0.574,1.178,0.574c0.469,0,0.87-0.198,1.204-0.595s0.501-1.011,0.501-1.843
		c0-0.793-0.163-1.387-0.489-1.781s-0.716-0.592-1.169-0.592c-0.449,0-0.847,0.21-1.192,0.63S29.124,12.199,29.124,13z"/>
	<path fill="#545554" d="M34.819,16.076v-8.59h1.055v8.59H34.819z"/>
	<path fill="#545554" d="M37.514,8.699V7.486h1.055v1.213H37.514z M37.514,16.076V9.854h1.055v6.223H37.514z"/>
	<path fill="#545554" d="M44.235,15.309c-0.392,0.332-0.768,0.566-1.129,0.703s-0.749,0.205-1.162,0.205
		c-0.685,0-1.21-0.167-1.577-0.501c-0.367-0.334-0.551-0.761-0.551-1.28c0-0.305,0.069-0.583,0.208-0.835s0.32-0.454,0.545-0.606
		c0.224-0.152,0.478-0.268,0.759-0.346c0.206-0.055,0.519-0.107,0.938-0.158c0.851-0.102,1.478-0.223,1.881-0.363
		c0.003-0.145,0.006-0.236,0.006-0.275c0-0.43-0.1-0.732-0.299-0.908c-0.27-0.238-0.671-0.357-1.201-0.357
		c-0.497,0-0.863,0.087-1.1,0.261s-0.411,0.481-0.523,0.923l-1.032-0.141c0.094-0.441,0.248-0.798,0.463-1.069
		c0.214-0.271,0.525-0.48,0.932-0.627c0.405-0.146,0.876-0.22,1.412-0.22c0.53,0,0.962,0.063,1.295,0.188
		c0.331,0.125,0.575,0.282,0.732,0.472c0.155,0.189,0.265,0.429,0.328,0.718c0.035,0.18,0.053,0.504,0.053,0.973v1.406
		c0,0.98,0.021,1.601,0.066,1.86s0.134,0.509,0.268,0.747h-1.102C44.336,15.857,44.266,15.602,44.235,15.309z M44.147,12.953
		c-0.384,0.156-0.958,0.289-1.723,0.398c-0.434,0.063-0.741,0.133-0.92,0.211c-0.181,0.078-0.319,0.192-0.416,0.343
		c-0.099,0.15-0.146,0.317-0.146,0.501c0,0.281,0.105,0.516,0.318,0.703s0.525,0.281,0.936,0.281c0.405,0,0.768-0.089,1.084-0.267
		s0.548-0.421,0.697-0.729c0.112-0.238,0.17-0.59,0.17-1.055V12.953z"/>
	<path fill="#545554" d="M46.837,16.076V9.854h0.949v0.943c0.242-0.441,0.466-0.732,0.671-0.873s0.431-0.211,0.677-0.211
		c0.355,0,0.717,0.113,1.084,0.34l-0.363,0.979c-0.258-0.152-0.516-0.229-0.773-0.229c-0.23,0-0.438,0.069-0.621,0.208
		s-0.314,0.331-0.393,0.577c-0.117,0.375-0.176,0.785-0.176,1.23v3.258H46.837z"/>
	<path fill="#545554" d="M54.431,16.076v-5.402h-0.932v-0.82h0.932V9.191c0-0.418,0.037-0.729,0.111-0.932
		c0.102-0.273,0.28-0.495,0.536-0.665s0.614-0.255,1.075-0.255c0.297,0,0.625,0.035,0.984,0.105l-0.158,0.92
		c-0.219-0.039-0.426-0.059-0.621-0.059c-0.32,0-0.547,0.068-0.68,0.205s-0.199,0.393-0.199,0.768v0.574h1.213v0.82h-1.213v5.402
		H54.431z"/>
	<path fill="#545554" d="M57.12,12.965c0-1.152,0.32-2.006,0.961-2.561c0.535-0.461,1.188-0.691,1.957-0.691
		c0.855,0,1.555,0.28,2.098,0.841s0.814,1.335,0.814,2.323c0,0.801-0.12,1.431-0.36,1.89s-0.59,0.815-1.049,1.069
		s-0.96,0.381-1.503,0.381c-0.871,0-1.575-0.279-2.112-0.838S57.12,14.016,57.12,12.965z M58.204,12.965
		c0,0.797,0.174,1.394,0.521,1.79s0.785,0.595,1.313,0.595c0.523,0,0.959-0.199,1.307-0.598s0.521-1.006,0.521-1.822
		c0-0.77-0.175-1.353-0.524-1.749s-0.784-0.595-1.304-0.595c-0.527,0-0.965,0.197-1.313,0.592S58.204,12.168,58.204,12.965z"/>
	<path fill="#545554" d="M66.489,15.133l0.152,0.932c-0.297,0.063-0.563,0.094-0.797,0.094c-0.383,0-0.68-0.061-0.891-0.182
		s-0.359-0.28-0.445-0.478s-0.129-0.612-0.129-1.245v-3.58h-0.773v-0.82h0.773V8.313l1.049-0.633v2.174h1.061v0.82h-1.061v3.639
		c0,0.301,0.019,0.494,0.056,0.58s0.098,0.154,0.182,0.205s0.204,0.076,0.36,0.076C66.144,15.174,66.298,15.16,66.489,15.133z"/>
	<path fill="#545554" d="M67.128,12.965c0-1.152,0.32-2.006,0.961-2.561c0.535-0.461,1.188-0.691,1.957-0.691
		c0.855,0,1.555,0.28,2.098,0.841s0.814,1.335,0.814,2.323c0,0.801-0.12,1.431-0.36,1.89s-0.59,0.815-1.049,1.069
		s-0.96,0.381-1.503,0.381c-0.871,0-1.575-0.279-2.112-0.838S67.128,14.016,67.128,12.965z M68.212,12.965
		c0,0.797,0.174,1.394,0.521,1.79s0.785,0.595,1.313,0.595c0.523,0,0.959-0.199,1.307-0.598s0.521-1.006,0.521-1.822
		c0-0.77-0.175-1.353-0.524-1.749s-0.784-0.595-1.304-0.595c-0.527,0-0.965,0.197-1.313,0.592S68.212,12.168,68.212,12.965z"/>
</g>
</svg>
