<?xml version="1.0" encoding="utf-8"?>
<!DOCTYPE svg PUBLIC "-//W3C//DTD SVG 1.1//EN" "http://www.w3.org/Graphics/SVG/1.1/DTD/svg11.dtd">
<svg version="1.1" id="Layer_1" xmlns="http://www.w3.org/2000/svg" xmlns:xlink="http://www.w3.org/1999/xlink" x="0px" y="0px"
	 width="82px" height="23px" viewBox="0 0 82 23" enable-background="new 0 0 82 23" xml:space="preserve">
<rect fill="#F7F7F7" stroke="#989898" stroke-miterlimit="10" width="82" height="23"/>
<g>
	<path fill="#545554" d="M10.055,13.064l1.137,0.287c-0.238,0.934-0.667,1.646-1.286,2.136s-1.376,0.735-2.271,0.735
		c-0.926,0-1.679-0.188-2.259-0.565s-1.021-0.923-1.324-1.638s-0.454-1.482-0.454-2.303c0-0.895,0.171-1.675,0.513-2.341
		s0.828-1.172,1.459-1.518S6.895,7.34,7.652,7.34c0.859,0,1.582,0.219,2.168,0.656s0.994,1.053,1.225,1.846l-1.119,0.264
		C9.727,9.48,9.438,9.025,9.059,8.74s-0.855-0.428-1.43-0.428c-0.66,0-1.212,0.158-1.655,0.475s-0.755,0.741-0.935,1.274
		s-0.27,1.083-0.27,1.649c0,0.73,0.106,1.368,0.319,1.913s0.544,0.952,0.993,1.222s0.936,0.404,1.459,0.404
		c0.637,0,1.176-0.184,1.617-0.551S9.898,13.787,10.055,13.064z"/>
	<path fill="#545554" d="M12.064,12.965c0-1.152,0.32-2.006,0.961-2.561c0.535-0.461,1.188-0.691,1.957-0.691
		c0.855,0,1.555,0.28,2.098,0.841s0.814,1.335,0.814,2.323c0,0.801-0.12,1.431-0.36,1.89s-0.59,0.815-1.049,1.069
		s-0.96,0.381-1.503,0.381c-0.871,0-1.575-0.279-2.112-0.838S12.064,14.016,12.064,12.965z M13.148,12.965
		c0,0.797,0.174,1.394,0.521,1.79s0.785,0.595,1.313,0.595c0.523,0,0.959-0.199,1.307-0.598s0.521-1.006,0.521-1.822
		c0-0.77-0.175-1.353-0.524-1.749s-0.784-0.595-1.304-0.595c-0.527,0-0.965,0.197-1.313,0.592S13.148,12.168,13.148,12.965z"/>
	<path fill="#545554" d="M19.131,16.076V9.854h0.943v0.873c0.195-0.305,0.455-0.55,0.779-0.735s0.693-0.278,1.107-0.278
		c0.461,0,0.839,0.096,1.134,0.287s0.503,0.459,0.624,0.803c0.492-0.727,1.133-1.09,1.922-1.09c0.617,0,1.092,0.171,1.424,0.513
		s0.498,0.868,0.498,1.579v4.271h-1.049v-3.92c0-0.422-0.034-0.726-0.103-0.911s-0.192-0.335-0.372-0.448s-0.391-0.17-0.633-0.17
		c-0.438,0-0.801,0.146-1.09,0.437s-0.434,0.757-0.434,1.397v3.615h-1.055v-4.043c0-0.469-0.086-0.82-0.258-1.055
		s-0.453-0.352-0.844-0.352c-0.297,0-0.571,0.078-0.823,0.234s-0.435,0.385-0.548,0.686s-0.17,0.734-0.17,1.301v3.229H19.131z"/>
	<path fill="#545554" d="M29.127,18.461V9.854h0.961v0.809c0.227-0.316,0.482-0.554,0.768-0.712s0.631-0.237,1.037-0.237
		c0.531,0,1,0.137,1.406,0.41s0.713,0.659,0.92,1.157c0.207,0.498,0.311,1.044,0.311,1.638c0,0.637-0.115,1.21-0.343,1.72
		c-0.229,0.51-0.561,0.9-0.996,1.172s-0.894,0.407-1.374,0.407c-0.352,0-0.667-0.074-0.946-0.223s-0.509-0.336-0.688-0.563v3.029
		H29.127z M30.082,13c0,0.801,0.162,1.393,0.486,1.775s0.717,0.574,1.178,0.574c0.469,0,0.87-0.198,1.204-0.595
		s0.501-1.011,0.501-1.843c0-0.793-0.163-1.387-0.489-1.781s-0.716-0.592-1.169-0.592c-0.449,0-0.847,0.21-1.192,0.63
		S30.082,12.199,30.082,13z"/>
	<path fill="#545554" d="M35.79,16.076V9.854h0.949v0.943c0.242-0.441,0.466-0.732,0.671-0.873s0.431-0.211,0.677-0.211
		c0.355,0,0.717,0.113,1.084,0.34l-0.363,0.979c-0.258-0.152-0.516-0.229-0.773-0.229c-0.23,0-0.438,0.069-0.621,0.208
		s-0.314,0.331-0.393,0.577c-0.117,0.375-0.176,0.785-0.176,1.23v3.258H35.79z"/>
	<path fill="#545554" d="M43.857,15.309c-0.391,0.332-0.766,0.566-1.127,0.703s-0.75,0.205-1.164,0.205
		c-0.684,0-1.209-0.167-1.576-0.501s-0.551-0.761-0.551-1.28c0-0.305,0.069-0.583,0.208-0.835s0.32-0.454,0.545-0.606
		s0.478-0.268,0.759-0.346c0.207-0.055,0.52-0.107,0.938-0.158c0.851-0.102,1.478-0.223,1.88-0.363
		c0.004-0.145,0.006-0.236,0.006-0.275c0-0.43-0.1-0.732-0.299-0.908c-0.27-0.238-0.67-0.357-1.201-0.357
		c-0.496,0-0.862,0.087-1.098,0.261s-0.411,0.481-0.524,0.923l-1.031-0.141c0.094-0.441,0.248-0.798,0.463-1.069
		s0.525-0.48,0.932-0.627s0.877-0.22,1.412-0.22c0.531,0,0.963,0.063,1.295,0.188s0.576,0.282,0.732,0.472s0.266,0.429,0.328,0.718
		c0.035,0.18,0.053,0.504,0.053,0.973v1.406c0,0.98,0.023,1.601,0.068,1.86s0.133,0.509,0.266,0.747h-1.102
		C43.959,15.857,43.889,15.602,43.857,15.309z M43.77,12.953c-0.383,0.156-0.957,0.289-1.723,0.398
		c-0.433,0.063-0.74,0.133-0.919,0.211s-0.318,0.192-0.416,0.343s-0.146,0.317-0.146,0.501c0,0.281,0.106,0.516,0.319,0.703
		s0.524,0.281,0.935,0.281c0.406,0,0.767-0.089,1.083-0.267s0.549-0.421,0.697-0.729c0.113-0.238,0.17-0.59,0.17-1.055V12.953z"/>
	<path fill="#545554" d="M46.459,16.076V9.854h0.949v0.943c0.242-0.441,0.467-0.732,0.672-0.873s0.43-0.211,0.676-0.211
		c0.355,0,0.717,0.113,1.084,0.34l-0.363,0.979c-0.258-0.152-0.516-0.229-0.773-0.229c-0.23,0-0.438,0.069-0.621,0.208
		s-0.314,0.331-0.393,0.577c-0.117,0.375-0.176,0.785-0.176,1.23v3.258H46.459z"/>
	<path fill="#545554" d="M53.801,16.076V9.854h0.943v0.873c0.195-0.305,0.455-0.55,0.779-0.735s0.693-0.278,1.107-0.278
		c0.461,0,0.84,0.096,1.135,0.287s0.502,0.459,0.623,0.803c0.492-0.727,1.133-1.09,1.922-1.09c0.617,0,1.092,0.171,1.424,0.513
		s0.498,0.868,0.498,1.579v4.271h-1.049v-3.92c0-0.422-0.033-0.726-0.102-0.911s-0.193-0.335-0.373-0.448s-0.391-0.17-0.633-0.17
		c-0.438,0-0.801,0.146-1.09,0.437s-0.434,0.757-0.434,1.397v3.615h-1.055v-4.043c0-0.469-0.086-0.82-0.258-1.055
		s-0.453-0.352-0.844-0.352c-0.297,0-0.57,0.078-0.822,0.234s-0.436,0.385-0.549,0.686s-0.17,0.734-0.17,1.301v3.229H53.801z"/>
	<path fill="#545554" d="M67.857,15.309c-0.391,0.332-0.766,0.566-1.127,0.703s-0.75,0.205-1.164,0.205
		c-0.684,0-1.209-0.167-1.576-0.501s-0.551-0.761-0.551-1.28c0-0.305,0.07-0.583,0.209-0.835s0.32-0.454,0.545-0.606
		s0.477-0.268,0.758-0.346c0.207-0.055,0.52-0.107,0.938-0.158c0.852-0.102,1.479-0.223,1.881-0.363
		c0.004-0.145,0.006-0.236,0.006-0.275c0-0.43-0.1-0.732-0.299-0.908c-0.27-0.238-0.67-0.357-1.201-0.357
		c-0.496,0-0.861,0.087-1.098,0.261s-0.412,0.481-0.525,0.923l-1.031-0.141c0.094-0.441,0.248-0.798,0.463-1.069
		s0.525-0.48,0.932-0.627s0.877-0.22,1.412-0.22c0.531,0,0.963,0.063,1.295,0.188s0.576,0.282,0.732,0.472s0.266,0.429,0.328,0.718
		c0.035,0.18,0.053,0.504,0.053,0.973v1.406c0,0.98,0.023,1.601,0.068,1.86s0.133,0.509,0.266,0.747h-1.102
		C67.959,15.857,67.889,15.602,67.857,15.309z M67.77,12.953c-0.383,0.156-0.957,0.289-1.723,0.398
		c-0.434,0.063-0.74,0.133-0.92,0.211s-0.318,0.192-0.416,0.343s-0.146,0.317-0.146,0.501c0,0.281,0.107,0.516,0.32,0.703
		s0.523,0.281,0.934,0.281c0.406,0,0.768-0.089,1.084-0.267s0.549-0.421,0.697-0.729c0.113-0.238,0.17-0.59,0.17-1.055V12.953z"/>
	<path fill="#545554" d="M70.477,8.699V7.486h1.055v1.213H70.477z M70.477,16.076V9.854h1.055v6.223H70.477z"/>
	<path fill="#545554" d="M72.715,14.219l1.043-0.164c0.059,0.418,0.223,0.738,0.49,0.961s0.641,0.334,1.121,0.334
		c0.484,0,0.844-0.099,1.078-0.296s0.352-0.429,0.352-0.694c0-0.238-0.104-0.426-0.311-0.563c-0.145-0.094-0.504-0.213-1.078-0.357
		c-0.773-0.195-1.309-0.364-1.607-0.507s-0.525-0.34-0.68-0.592s-0.232-0.53-0.232-0.835c0-0.277,0.064-0.534,0.191-0.771
		s0.299-0.433,0.518-0.589c0.164-0.121,0.389-0.224,0.672-0.308s0.586-0.126,0.91-0.126c0.488,0,0.918,0.07,1.287,0.211
		s0.641,0.331,0.816,0.571s0.297,0.562,0.363,0.964L76.617,11.6c-0.047-0.32-0.182-0.57-0.406-0.75s-0.543-0.27-0.953-0.27
		c-0.484,0-0.83,0.08-1.037,0.24s-0.311,0.348-0.311,0.563c0,0.137,0.043,0.26,0.129,0.369c0.086,0.113,0.221,0.207,0.404,0.281
		c0.105,0.039,0.416,0.129,0.932,0.27c0.746,0.199,1.268,0.362,1.563,0.489s0.525,0.312,0.693,0.554s0.252,0.543,0.252,0.902
		c0,0.352-0.102,0.683-0.307,0.993s-0.502,0.551-0.889,0.721s-0.824,0.255-1.313,0.255c-0.809,0-1.424-0.168-1.848-0.504
		S72.832,14.879,72.715,14.219z"/>
</g>
</svg>
