<?xml version="1.0" encoding="utf-8"?>
<!DOCTYPE svg PUBLIC "-//W3C//DTD SVG 1.1//EN" "http://www.w3.org/Graphics/SVG/1.1/DTD/svg11.dtd">
<svg version="1.1" id="Layer_1" xmlns="http://www.w3.org/2000/svg" xmlns:xlink="http://www.w3.org/1999/xlink" x="0px" y="0px"
	 width="82px" height="23px" viewBox="0 0 82 23" enable-background="new 0 0 82 23" xml:space="preserve">
<rect fill="#0E8E45" stroke="#0E8E45" stroke-miterlimit="10" width="82" height="23"/>
<g>
	<path fill="#FFFFFF" d="M17.039,13.064l1.137,0.287c-0.238,0.934-0.667,1.646-1.286,2.136s-1.376,0.735-2.271,0.735
		c-0.926,0-1.679-0.188-2.259-0.565s-1.021-0.923-1.324-1.638s-0.454-1.482-0.454-2.303c0-0.895,0.171-1.675,0.513-2.341
		s0.828-1.172,1.459-1.518s1.325-0.519,2.083-0.519c0.859,0,1.582,0.219,2.168,0.656s0.994,1.053,1.225,1.846l-1.119,0.264
		c-0.199-0.625-0.488-1.08-0.867-1.365s-0.855-0.428-1.43-0.428c-0.66,0-1.212,0.158-1.655,0.475s-0.755,0.741-0.935,1.274
		s-0.27,1.083-0.27,1.649c0,0.73,0.106,1.368,0.319,1.913s0.544,0.952,0.993,1.222s0.936,0.404,1.459,0.404
		c0.637,0,1.176-0.184,1.617-0.551S16.883,13.787,17.039,13.064z"/>
	<path fill="#FFFFFF" d="M19.049,12.965c0-1.152,0.32-2.006,0.961-2.561c0.535-0.461,1.188-0.691,1.957-0.691
		c0.855,0,1.555,0.28,2.098,0.841s0.814,1.335,0.814,2.323c0,0.801-0.12,1.431-0.36,1.89s-0.59,0.815-1.049,1.069
		s-0.96,0.381-1.503,0.381c-0.871,0-1.575-0.279-2.112-0.838S19.049,14.016,19.049,12.965z M20.133,12.965
		c0,0.797,0.174,1.394,0.521,1.79s0.785,0.595,1.313,0.595c0.523,0,0.959-0.199,1.307-0.598s0.521-1.006,0.521-1.822
		c0-0.77-0.175-1.353-0.524-1.749s-0.784-0.595-1.304-0.595c-0.527,0-0.965,0.197-1.313,0.592S20.133,12.168,20.133,12.965z"/>
	<path fill="#FFFFFF" d="M26.115,16.076V9.854h0.949v0.885c0.457-0.684,1.117-1.025,1.98-1.025c0.375,0,0.72,0.067,1.034,0.202
		s0.55,0.312,0.706,0.53s0.266,0.479,0.328,0.779c0.039,0.195,0.059,0.537,0.059,1.025v3.826h-1.055v-3.785
		c0-0.43-0.041-0.751-0.123-0.964s-0.228-0.383-0.437-0.51s-0.454-0.19-0.735-0.19c-0.449,0-0.837,0.143-1.163,0.428
		s-0.489,0.826-0.489,1.623v3.398H26.115z"/>
	<path fill="#FFFFFF" d="M35.092,15.133l0.152,0.932c-0.297,0.063-0.563,0.094-0.797,0.094c-0.383,0-0.68-0.061-0.891-0.182
		s-0.359-0.28-0.445-0.478s-0.129-0.612-0.129-1.245v-3.58h-0.773v-0.82h0.773V8.313l1.049-0.633v2.174h1.061v0.82h-1.061v3.639
		c0,0.301,0.019,0.494,0.056,0.58s0.098,0.154,0.182,0.205s0.204,0.076,0.36,0.076C34.746,15.174,34.9,15.16,35.092,15.133z"/>
	<path fill="#FFFFFF" d="M36.129,8.699V7.486h1.055v1.213H36.129z M36.129,16.076V9.854h1.055v6.223H36.129z"/>
	<path fill="#FFFFFF" d="M38.789,16.076V9.854h0.949v0.885c0.457-0.684,1.117-1.025,1.98-1.025c0.375,0,0.72,0.067,1.034,0.202
		s0.55,0.312,0.706,0.53s0.266,0.479,0.328,0.779c0.039,0.195,0.059,0.537,0.059,1.025v3.826h-1.055v-3.785
		c0-0.43-0.041-0.751-0.123-0.964s-0.228-0.383-0.437-0.51s-0.454-0.19-0.735-0.19c-0.449,0-0.837,0.143-1.163,0.428
		s-0.489,0.826-0.489,1.623v3.398H38.789z"/>
	<path fill="#FFFFFF" d="M49.541,16.076v-0.914c-0.484,0.703-1.143,1.055-1.975,1.055c-0.367,0-0.71-0.07-1.028-0.211
		s-0.555-0.317-0.709-0.53s-0.263-0.474-0.325-0.782c-0.043-0.207-0.064-0.535-0.064-0.984V9.854h1.055v3.451
		c0,0.551,0.021,0.922,0.064,1.113c0.066,0.277,0.207,0.495,0.422,0.653s0.48,0.237,0.797,0.237s0.613-0.081,0.891-0.243
		s0.474-0.383,0.589-0.662s0.173-0.685,0.173-1.216V9.854h1.055v6.223H49.541z"/>
	<path fill="#FFFFFF" d="M56.197,15.309c-0.391,0.332-0.767,0.566-1.128,0.703s-0.749,0.205-1.163,0.205
		c-0.684,0-1.209-0.167-1.576-0.501s-0.551-0.761-0.551-1.28c0-0.305,0.069-0.583,0.208-0.835s0.32-0.454,0.545-0.606
		s0.478-0.268,0.759-0.346c0.207-0.055,0.52-0.107,0.938-0.158c0.852-0.102,1.479-0.223,1.881-0.363
		c0.004-0.145,0.006-0.236,0.006-0.275c0-0.43-0.1-0.732-0.299-0.908c-0.27-0.238-0.67-0.357-1.201-0.357
		c-0.496,0-0.862,0.087-1.099,0.261s-0.411,0.481-0.524,0.923l-1.031-0.141c0.094-0.441,0.248-0.798,0.463-1.069
		s0.525-0.48,0.932-0.627s0.877-0.22,1.412-0.22c0.531,0,0.963,0.063,1.295,0.188s0.576,0.282,0.732,0.472s0.266,0.429,0.328,0.718
		c0.035,0.18,0.053,0.504,0.053,0.973v1.406c0,0.98,0.022,1.601,0.067,1.86s0.134,0.509,0.267,0.747h-1.102
		C56.299,15.857,56.229,15.602,56.197,15.309z M56.109,12.953c-0.383,0.156-0.957,0.289-1.723,0.398
		c-0.434,0.063-0.74,0.133-0.92,0.211s-0.318,0.192-0.416,0.343s-0.146,0.317-0.146,0.501c0,0.281,0.106,0.516,0.319,0.703
		s0.524,0.281,0.935,0.281c0.406,0,0.768-0.089,1.084-0.267s0.549-0.421,0.697-0.729c0.113-0.238,0.17-0.59,0.17-1.055V12.953z"/>
	<path fill="#FFFFFF" d="M58.799,16.076V9.854h0.949v0.943c0.242-0.441,0.466-0.732,0.671-0.873s0.431-0.211,0.677-0.211
		c0.355,0,0.717,0.113,1.084,0.34l-0.363,0.979c-0.258-0.152-0.516-0.229-0.773-0.229c-0.23,0-0.438,0.069-0.621,0.208
		s-0.314,0.331-0.393,0.577c-0.117,0.375-0.176,0.785-0.176,1.23v3.258H58.799z"/>
</g>
<polyline fill="#FFFFFF" points="69.563,6 69.563,18.25 76.688,11.125 "/>
</svg>
