<?xml version="1.0" encoding="utf-8"?>
<!DOCTYPE svg PUBLIC "-//W3C//DTD SVG 1.1//EN" "http://www.w3.org/Graphics/SVG/1.1/DTD/svg11.dtd">
<svg version="1.1" id="Layer_1" xmlns="http://www.w3.org/2000/svg" xmlns:xlink="http://www.w3.org/1999/xlink" x="0px" y="0px"
	 width="23px" height="22px" viewBox="0 0 23 22" enable-background="new 0 0 23 22" xml:space="preserve">
<g>
	<g>
		<g>
			<g>
				
					<rect x="13.266" y="12.825" transform="matrix(0.6668 -0.7453 0.7453 0.6668 -5.1764 14.7565)" fill="#666766" width="1.293" height="0.683"/>
				
					<rect x="13.447" y="13.288" transform="matrix(0.6673 -0.7448 0.7448 0.6673 -5.2934 15.1048)" fill="#666766" width="1.625" height="0.378"/>
			</g>
			<path fill="#666766" d="M20.13,17.377c0.285,0.254,0.314,0.684,0.066,0.959l-0.448,0.501c-0.246,0.276-0.675,0.294-0.961,0.04
				l-4.972-4.448c-0.283-0.253-0.021-0.422,0.227-0.697l0.447-0.501c0.246-0.274,0.384-0.555,0.669-0.301L20.13,17.377z"/>
		</g>
		<path fill="#666766" d="M4.241,5.045c-2.321,2.593-2.098,6.576,0.496,8.897c2.593,2.32,6.577,2.097,8.897-0.495
			c2.32-2.595,2.099-6.578-0.496-8.897C10.544,2.229,6.561,2.45,4.241,5.045z M12.824,12.724c-1.92,2.146-5.217,2.329-7.364,0.408
			c-2.147-1.919-2.331-5.216-0.411-7.363c1.92-2.148,5.218-2.33,7.366-0.411C14.562,7.278,14.745,10.576,12.824,12.724z"/>
	</g>
</g>
</svg>
