<?xml version="1.0" encoding="utf-8"?>
<!DOCTYPE svg PUBLIC "-//W3C//DTD SVG 1.1//EN" "http://www.w3.org/Graphics/SVG/1.1/DTD/svg11.dtd">
<svg version="1.1" id="Layer_1" xmlns="http://www.w3.org/2000/svg" xmlns:xlink="http://www.w3.org/1999/xlink" x="0px" y="0px"
	 width="82px" height="23px" viewBox="0 0 82 23" enable-background="new 0 0 82 23" xml:space="preserve">
<rect fill="#F7F7F7" stroke="#989898" stroke-miterlimit="10" width="82" height="23"/>
<g>
	<path fill="#545554" d="M21.943,16.076v-8.59h3.809c0.766,0,1.348,0.077,1.746,0.231s0.717,0.427,0.955,0.817
		s0.357,0.822,0.357,1.295c0,0.609-0.197,1.123-0.592,1.541s-1.004,0.684-1.828,0.797c0.301,0.145,0.529,0.287,0.686,0.428
		c0.332,0.305,0.646,0.686,0.943,1.143l1.494,2.338h-1.43l-1.137-1.787c-0.332-0.516-0.605-0.91-0.82-1.184
		s-0.407-0.465-0.577-0.574s-0.343-0.186-0.519-0.229c-0.129-0.027-0.34-0.041-0.633-0.041H23.08v3.814H21.943z M23.08,11.277h2.443
		c0.52,0,0.926-0.054,1.219-0.161s0.516-0.279,0.668-0.516s0.229-0.493,0.229-0.771c0-0.406-0.147-0.74-0.442-1.002
		s-0.761-0.393-1.397-0.393H23.08V11.277z"/>
	<path fill="#545554" d="M34.717,14.072l1.09,0.135c-0.172,0.637-0.49,1.131-0.955,1.482s-1.059,0.527-1.781,0.527
		c-0.91,0-1.632-0.28-2.165-0.841s-0.8-1.347-0.8-2.358c0-1.047,0.27-1.859,0.809-2.438s1.238-0.867,2.098-0.867
		c0.832,0,1.512,0.283,2.039,0.85s0.791,1.363,0.791,2.391c0,0.063-0.002,0.156-0.006,0.281h-4.641
		c0.039,0.684,0.232,1.207,0.58,1.57s0.781,0.545,1.301,0.545c0.387,0,0.717-0.102,0.99-0.305S34.557,14.518,34.717,14.072z
		 M31.254,12.367h3.475c-0.047-0.523-0.18-0.916-0.398-1.178c-0.336-0.406-0.771-0.609-1.307-0.609
		c-0.484,0-0.892,0.162-1.222,0.486S31.289,11.824,31.254,12.367z"/>
	<path fill="#545554" d="M41.191,13.797l1.037,0.135c-0.113,0.715-0.403,1.274-0.87,1.679s-1.04,0.606-1.72,0.606
		c-0.852,0-1.536-0.278-2.054-0.835s-0.776-1.354-0.776-2.394c0-0.672,0.111-1.26,0.334-1.764s0.562-0.882,1.017-1.134
		s0.95-0.378,1.485-0.378c0.676,0,1.229,0.171,1.658,0.513s0.705,0.827,0.826,1.456l-1.025,0.158
		c-0.098-0.418-0.271-0.732-0.519-0.943s-0.548-0.316-0.899-0.316c-0.531,0-0.963,0.19-1.295,0.571s-0.498,0.983-0.498,1.808
		c0,0.836,0.16,1.443,0.48,1.822s0.738,0.568,1.254,0.568c0.414,0,0.76-0.127,1.037-0.381S41.117,14.324,41.191,13.797z"/>
	<path fill="#545554" d="M47.191,15.309c-0.391,0.332-0.767,0.566-1.128,0.703s-0.749,0.205-1.163,0.205
		c-0.684,0-1.209-0.167-1.576-0.501s-0.551-0.761-0.551-1.28c0-0.305,0.069-0.583,0.208-0.835s0.32-0.454,0.545-0.606
		s0.478-0.268,0.759-0.346c0.207-0.055,0.52-0.107,0.938-0.158c0.852-0.102,1.479-0.223,1.881-0.363
		c0.004-0.145,0.006-0.236,0.006-0.275c0-0.43-0.1-0.732-0.299-0.908c-0.27-0.238-0.67-0.357-1.201-0.357
		c-0.496,0-0.862,0.087-1.099,0.261s-0.411,0.481-0.524,0.923l-1.031-0.141c0.094-0.441,0.248-0.798,0.463-1.069
		s0.525-0.48,0.932-0.627s0.877-0.22,1.412-0.22c0.531,0,0.963,0.063,1.295,0.188s0.576,0.282,0.732,0.472s0.266,0.429,0.328,0.718
		c0.035,0.18,0.053,0.504,0.053,0.973v1.406c0,0.98,0.022,1.601,0.067,1.86s0.134,0.509,0.267,0.747h-1.102
		C47.293,15.857,47.223,15.602,47.191,15.309z M47.104,12.953c-0.383,0.156-0.957,0.289-1.723,0.398
		c-0.434,0.063-0.74,0.133-0.92,0.211s-0.318,0.192-0.416,0.343s-0.146,0.317-0.146,0.501c0,0.281,0.106,0.516,0.319,0.703
		s0.524,0.281,0.935,0.281c0.406,0,0.768-0.089,1.084-0.267s0.549-0.421,0.697-0.729c0.113-0.238,0.17-0.59,0.17-1.055V12.953z"/>
	<path fill="#545554" d="M49.781,16.076v-8.59h1.055v8.59H49.781z"/>
	<path fill="#545554" d="M56.531,13.797l1.037,0.135c-0.113,0.715-0.404,1.274-0.871,1.679s-1.039,0.606-1.719,0.606
		c-0.852,0-1.537-0.278-2.055-0.835s-0.775-1.354-0.775-2.394c0-0.672,0.111-1.26,0.334-1.764s0.561-0.882,1.016-1.134
		s0.951-0.378,1.486-0.378c0.676,0,1.229,0.171,1.658,0.513s0.705,0.827,0.826,1.456l-1.025,0.158
		c-0.098-0.418-0.271-0.732-0.52-0.943s-0.547-0.316-0.898-0.316c-0.531,0-0.963,0.19-1.295,0.571s-0.498,0.983-0.498,1.808
		c0,0.836,0.16,1.443,0.48,1.822s0.738,0.568,1.254,0.568c0.414,0,0.76-0.127,1.037-0.381S56.457,14.324,56.531,13.797z"/>
	<path fill="#545554" d="M62.549,16.076v-0.914c-0.484,0.703-1.143,1.055-1.975,1.055c-0.367,0-0.709-0.07-1.027-0.211
		s-0.555-0.317-0.709-0.53s-0.264-0.474-0.326-0.782c-0.043-0.207-0.064-0.535-0.064-0.984V9.854h1.055v3.451
		c0,0.551,0.021,0.922,0.064,1.113c0.066,0.277,0.207,0.495,0.422,0.653s0.48,0.237,0.797,0.237s0.613-0.081,0.891-0.243
		s0.475-0.383,0.59-0.662s0.172-0.685,0.172-1.216V9.854h1.055v6.223H62.549z"/>
	<path fill="#545554" d="M65.121,16.076v-8.59h1.055v8.59H65.121z"/>
	<path fill="#545554" d="M71.871,15.309c-0.391,0.332-0.766,0.566-1.127,0.703s-0.75,0.205-1.164,0.205
		c-0.684,0-1.209-0.167-1.576-0.501s-0.551-0.761-0.551-1.28c0-0.305,0.07-0.583,0.209-0.835s0.32-0.454,0.545-0.606
		s0.477-0.268,0.758-0.346c0.207-0.055,0.52-0.107,0.938-0.158c0.852-0.102,1.479-0.223,1.881-0.363
		c0.004-0.145,0.006-0.236,0.006-0.275c0-0.43-0.1-0.732-0.299-0.908c-0.27-0.238-0.67-0.357-1.201-0.357
		c-0.496,0-0.861,0.087-1.098,0.261s-0.412,0.481-0.525,0.923l-1.031-0.141c0.094-0.441,0.248-0.798,0.463-1.069
		s0.525-0.48,0.932-0.627s0.877-0.22,1.412-0.22c0.531,0,0.963,0.063,1.295,0.188s0.576,0.282,0.732,0.472s0.266,0.429,0.328,0.718
		c0.035,0.18,0.053,0.504,0.053,0.973v1.406c0,0.98,0.023,1.601,0.068,1.86s0.133,0.509,0.266,0.747h-1.102
		C71.973,15.857,71.902,15.602,71.871,15.309z M71.783,12.953c-0.383,0.156-0.957,0.289-1.723,0.398
		c-0.434,0.063-0.74,0.133-0.92,0.211s-0.318,0.192-0.416,0.343s-0.146,0.317-0.146,0.501c0,0.281,0.107,0.516,0.32,0.703
		s0.523,0.281,0.934,0.281c0.406,0,0.768-0.089,1.084-0.267s0.549-0.421,0.697-0.729c0.113-0.238,0.17-0.59,0.17-1.055V12.953z"/>
	<path fill="#545554" d="M74.473,16.076V9.854h0.949v0.943c0.242-0.441,0.467-0.732,0.672-0.873s0.43-0.211,0.676-0.211
		c0.355,0,0.717,0.113,1.084,0.34l-0.363,0.979c-0.258-0.152-0.516-0.229-0.773-0.229c-0.23,0-0.438,0.069-0.621,0.208
		s-0.314,0.331-0.393,0.577c-0.117,0.375-0.176,0.785-0.176,1.23v3.258H74.473z"/>
</g>
<path fill="#58B947" d="M16.439,8.764l-1.552,0.662c0,0-1.068-2.748-4.069-2.772C7.817,6.628,6.901,8.764,6.901,8.764l1.12,0.534
	l-3.536,2.696L4.001,7.62l1.271,0.534c0,0,1.424-2.696,4.095-3.077c2.67-0.381,4.248,0.433,5.341,1.348
	C15.804,7.34,16.439,8.764,16.439,8.764"/>
<path fill="#58B947" d="M4.968,13.501l1.552-0.662c0,0,1.068,2.748,4.069,2.772c3.001,0.025,3.917-2.11,3.917-2.11l-1.12-0.534
	l3.536-2.696l0.483,4.375l-1.272-0.534c0,0-1.424,2.696-4.095,3.078c-2.67,0.38-4.248-0.433-5.341-1.349
	C5.604,14.925,4.968,13.501,4.968,13.501"/>
</svg>
