<?xml version="1.0" encoding="utf-8"?>
<!DOCTYPE svg PUBLIC "-//W3C//DTD SVG 1.1//EN" "http://www.w3.org/Graphics/SVG/1.1/DTD/svg11.dtd">
<svg version="1.1" id="Layer_1" xmlns="http://www.w3.org/2000/svg" xmlns:xlink="http://www.w3.org/1999/xlink" x="0px" y="0px"
	 width="16px" height="16px" viewBox="0 0 16 16" enable-background="new 0 0 16 16" xml:space="preserve">
<g>
	<polygon fill="#1D6432" points="14.861,10.521 6.449,10.521 4.844,5 15.825,5 	"/>
	<path fill="#1D6432" d="M14.509,11.807h-8.67c-0.18,0-0.339-0.121-0.39-0.293L3.094,3.393H0.58c-0.225,0-0.406-0.182-0.406-0.405
		c0-0.225,0.181-0.406,0.406-0.406h2.818c0.18,0,0.339,0.119,0.39,0.292l2.355,8.12h8.365c0.224,0,0.405,0.182,0.405,0.404
		C14.914,11.623,14.732,11.807,14.509,11.807z"/>
	<path fill="#1D6432" d="M8.119,13.154c0-0.566-0.459-1.027-1.028-1.027c-0.567,0-1.028,0.461-1.028,1.027
		c0,0.57,0.46,1.029,1.028,1.029C7.659,14.184,8.119,13.725,8.119,13.154z"/>
	<path fill="#1D6432" d="M14.476,13.154c0-0.566-0.459-1.027-1.027-1.027c-0.566,0-1.027,0.461-1.027,1.027
		c0,0.57,0.461,1.029,1.027,1.029C14.017,14.184,14.476,13.725,14.476,13.154z"/>
</g>
</svg>
