<?xml version="1.0" encoding="utf-8"?>
<!DOCTYPE svg PUBLIC "-//W3C//DTD SVG 1.1//EN" "http://www.w3.org/Graphics/SVG/1.1/DTD/svg11.dtd">
<svg version="1.1" id="Layer_1" xmlns="http://www.w3.org/2000/svg" xmlns:xlink="http://www.w3.org/1999/xlink" x="0px" y="0px"
	 width="82px" height="23px" viewBox="0 0 82 23" enable-background="new 0 0 82 23" xml:space="preserve">
<rect fill="#F7F7F7" stroke="#989898" stroke-miterlimit="10" width="82" height="23"/>
<g>
	<path fill="#761113" d="M16.949,16.076v-8.59h6.211V8.5h-5.074v2.631h4.752v1.008h-4.752v2.924h5.273v1.014H16.949z"/>
	<path fill="#761113" d="M24.373,14.219l1.043-0.164c0.059,0.418,0.222,0.738,0.489,0.961s0.642,0.334,1.122,0.334
		c0.484,0,0.844-0.099,1.078-0.296s0.352-0.429,0.352-0.694c0-0.238-0.104-0.426-0.311-0.563c-0.145-0.094-0.504-0.213-1.078-0.357
		c-0.773-0.195-1.31-0.364-1.608-0.507s-0.525-0.34-0.68-0.592s-0.231-0.53-0.231-0.835c0-0.277,0.063-0.534,0.19-0.771
		s0.3-0.433,0.519-0.589c0.164-0.121,0.388-0.224,0.671-0.308s0.587-0.126,0.911-0.126c0.488,0,0.917,0.07,1.286,0.211
		s0.642,0.331,0.817,0.571s0.297,0.562,0.363,0.964L28.275,11.6c-0.047-0.32-0.183-0.57-0.407-0.75s-0.542-0.27-0.952-0.27
		c-0.484,0-0.83,0.08-1.037,0.24s-0.311,0.348-0.311,0.563c0,0.137,0.043,0.26,0.129,0.369c0.086,0.113,0.221,0.207,0.404,0.281
		c0.105,0.039,0.416,0.129,0.932,0.27c0.746,0.199,1.267,0.362,1.562,0.489s0.526,0.312,0.694,0.554s0.252,0.543,0.252,0.902
		c0,0.352-0.103,0.683-0.308,0.993s-0.501,0.551-0.888,0.721s-0.824,0.255-1.313,0.255c-0.809,0-1.425-0.168-1.849-0.504
		S24.49,14.879,24.373,14.219z"/>
	<path fill="#761113" d="M30.602,16.592l1.025,0.152c0.043,0.316,0.162,0.547,0.357,0.691c0.262,0.195,0.619,0.293,1.072,0.293
		c0.488,0,0.865-0.098,1.131-0.293s0.445-0.469,0.539-0.82c0.055-0.215,0.08-0.666,0.076-1.354
		c-0.461,0.543-1.035,0.814-1.723,0.814c-0.855,0-1.518-0.309-1.986-0.926s-0.703-1.357-0.703-2.221
		c0-0.594,0.107-1.142,0.322-1.644s0.526-0.89,0.935-1.163s0.888-0.41,1.438-0.41c0.734,0,1.34,0.297,1.816,0.891v-0.75h0.973v5.379
		c0,0.969-0.099,1.655-0.296,2.06s-0.51,0.724-0.938,0.958s-0.954,0.352-1.579,0.352c-0.742,0-1.342-0.167-1.799-0.501
		S30.586,17.264,30.602,16.592z M31.475,12.854c0,0.816,0.162,1.412,0.486,1.787s0.73,0.563,1.219,0.563
		c0.484,0,0.891-0.187,1.219-0.56s0.492-0.958,0.492-1.755c0-0.762-0.169-1.336-0.507-1.723s-0.745-0.58-1.222-0.58
		c-0.469,0-0.867,0.19-1.195,0.571S31.475,12.104,31.475,12.854z"/>
	<path fill="#761113" d="M37.076,12.965c0-1.152,0.32-2.006,0.961-2.561c0.535-0.461,1.188-0.691,1.957-0.691
		c0.855,0,1.555,0.28,2.098,0.841s0.814,1.335,0.814,2.323c0,0.801-0.12,1.431-0.36,1.89s-0.59,0.815-1.049,1.069
		s-0.96,0.381-1.503,0.381c-0.871,0-1.575-0.279-2.112-0.838S37.076,14.016,37.076,12.965z M38.16,12.965
		c0,0.797,0.174,1.394,0.521,1.79s0.785,0.595,1.313,0.595c0.523,0,0.959-0.199,1.307-0.598s0.521-1.006,0.521-1.822
		c0-0.77-0.175-1.353-0.524-1.749s-0.784-0.595-1.304-0.595c-0.527,0-0.965,0.197-1.313,0.592S38.16,12.168,38.16,12.965z"/>
	<path fill="#761113" d="M46.445,15.133l0.152,0.932c-0.297,0.063-0.563,0.094-0.797,0.094c-0.383,0-0.68-0.061-0.891-0.182
		s-0.359-0.28-0.445-0.478s-0.129-0.612-0.129-1.245v-3.58h-0.773v-0.82h0.773V8.313l1.049-0.633v2.174h1.061v0.82h-1.061v3.639
		c0,0.301,0.019,0.494,0.056,0.58s0.098,0.154,0.182,0.205s0.204,0.076,0.36,0.076C46.1,15.174,46.254,15.16,46.445,15.133z"/>
	<path fill="#761113" d="M51.537,15.309c-0.391,0.332-0.768,0.566-1.129,0.703s-0.748,0.205-1.162,0.205
		c-0.684,0-1.209-0.167-1.576-0.501s-0.551-0.761-0.551-1.28c0-0.305,0.069-0.583,0.207-0.835c0.139-0.252,0.32-0.454,0.545-0.606
		s0.479-0.268,0.76-0.346c0.207-0.055,0.52-0.107,0.938-0.158c0.852-0.102,1.479-0.223,1.881-0.363
		c0.004-0.145,0.006-0.236,0.006-0.275c0-0.43-0.1-0.732-0.299-0.908c-0.27-0.238-0.67-0.357-1.201-0.357
		c-0.496,0-0.863,0.087-1.1,0.261s-0.41,0.481-0.523,0.923l-1.031-0.141c0.094-0.441,0.248-0.798,0.463-1.069
		s0.525-0.48,0.932-0.627s0.877-0.22,1.412-0.22c0.531,0,0.963,0.063,1.295,0.188s0.576,0.282,0.732,0.472s0.266,0.429,0.328,0.718
		c0.035,0.18,0.053,0.504,0.053,0.973v1.406c0,0.98,0.021,1.601,0.066,1.86s0.135,0.509,0.268,0.747h-1.102
		C51.639,15.857,51.568,15.602,51.537,15.309z M51.449,12.953c-0.383,0.156-0.957,0.289-1.723,0.398
		c-0.434,0.063-0.74,0.133-0.92,0.211s-0.318,0.192-0.416,0.343s-0.146,0.317-0.146,0.501c0,0.281,0.105,0.516,0.318,0.703
		s0.525,0.281,0.936,0.281c0.406,0,0.768-0.089,1.084-0.267s0.549-0.421,0.697-0.729c0.113-0.238,0.17-0.59,0.17-1.055V12.953z"/>
	<path fill="#761113" d="M58.188,16.076v-0.785c-0.395,0.617-0.975,0.926-1.74,0.926c-0.496,0-0.951-0.137-1.367-0.41
		s-0.738-0.655-0.967-1.146s-0.344-1.054-0.344-1.69c0-0.621,0.104-1.185,0.311-1.69s0.518-0.894,0.932-1.163
		s0.877-0.404,1.389-0.404c0.375,0,0.709,0.079,1.002,0.237s0.531,0.364,0.715,0.618V7.486h1.049v8.59H58.188z M54.854,12.971
		c0,0.797,0.168,1.393,0.504,1.787s0.732,0.592,1.189,0.592c0.461,0,0.854-0.188,1.176-0.565s0.482-0.952,0.482-1.726
		c0-0.852-0.164-1.477-0.492-1.875s-0.732-0.598-1.213-0.598c-0.469,0-0.859,0.191-1.174,0.574S54.854,12.146,54.854,12.971z"/>
	<path fill="#761113" d="M60.432,12.965c0-1.152,0.32-2.006,0.961-2.561c0.535-0.461,1.188-0.691,1.957-0.691
		c0.855,0,1.555,0.28,2.098,0.841s0.814,1.335,0.814,2.323c0,0.801-0.119,1.431-0.359,1.89s-0.59,0.815-1.049,1.069
		s-0.961,0.381-1.504,0.381c-0.871,0-1.574-0.279-2.111-0.838S60.432,14.016,60.432,12.965z M61.516,12.965
		c0,0.797,0.174,1.394,0.521,1.79s0.785,0.595,1.313,0.595c0.523,0,0.959-0.199,1.307-0.598s0.521-1.006,0.521-1.822
		c0-0.77-0.174-1.353-0.523-1.749s-0.785-0.595-1.305-0.595c-0.527,0-0.965,0.197-1.313,0.592S61.516,12.168,61.516,12.965z"/>
</g>
</svg>
