<?xml version="1.0" encoding="utf-8"?>
<!DOCTYPE svg PUBLIC "-//W3C//DTD SVG 1.1//EN" "http://www.w3.org/Graphics/SVG/1.1/DTD/svg11.dtd">
<svg version="1.1" id="Layer_1" xmlns="http://www.w3.org/2000/svg" xmlns:xlink="http://www.w3.org/1999/xlink" x="0px" y="0px"
	 width="82px" height="23px" viewBox="0 0 82 23" enable-background="new 0 0 82 23" xml:space="preserve">
<rect fill="#0E8E45" stroke="#0E8E45" stroke-miterlimit="10" width="82" height="23"/>
<g>
	<path fill="#FFFFFF" d="M17.387,13.064l1.137,0.287c-0.238,0.934-0.667,1.646-1.286,2.136s-1.376,0.735-2.271,0.735
		c-0.926,0-1.679-0.188-2.259-0.565s-1.021-0.923-1.324-1.638s-0.454-1.482-0.454-2.303c0-0.895,0.171-1.675,0.513-2.341
		s0.828-1.172,1.459-1.518s1.325-0.519,2.083-0.519c0.859,0,1.582,0.219,2.168,0.656s0.994,1.053,1.225,1.846l-1.119,0.264
		c-0.199-0.625-0.488-1.08-0.867-1.365s-0.855-0.428-1.43-0.428c-0.66,0-1.212,0.158-1.655,0.475s-0.755,0.741-0.935,1.274
		s-0.27,1.083-0.27,1.649c0,0.73,0.106,1.368,0.319,1.913s0.544,0.952,0.993,1.222s0.936,0.404,1.459,0.404
		c0.637,0,1.176-0.184,1.617-0.551S17.23,13.787,17.387,13.064z"/>
	<path fill="#FFFFFF" d="M19.578,11.893c0-1.426,0.383-2.542,1.148-3.349s1.754-1.21,2.965-1.21c0.793,0,1.508,0.189,2.145,0.568
		s1.122,0.907,1.456,1.585s0.501,1.446,0.501,2.306c0,0.871-0.176,1.65-0.527,2.338s-0.85,1.208-1.494,1.562s-1.34,0.53-2.086,0.53
		c-0.809,0-1.531-0.195-2.168-0.586s-1.119-0.924-1.447-1.6S19.578,12.646,19.578,11.893z M20.75,11.91
		c0,1.035,0.278,1.851,0.835,2.446s1.255,0.894,2.095,0.894c0.855,0,1.56-0.301,2.112-0.902s0.829-1.455,0.829-2.561
		c0-0.699-0.118-1.31-0.354-1.831s-0.582-0.926-1.037-1.213s-0.966-0.431-1.532-0.431c-0.805,0-1.497,0.276-2.077,0.829
		S20.75,10.617,20.75,11.91z"/>
	<path fill="#FFFFFF" d="M29.223,16.076v-8.59h1.711l2.033,6.082c0.188,0.566,0.324,0.99,0.41,1.271
		c0.098-0.313,0.25-0.771,0.457-1.377l2.057-5.977h1.529v8.59h-1.096V8.887l-2.496,7.189h-1.025l-2.484-7.313v7.313H29.223z"/>
	<path fill="#FFFFFF" d="M39.254,16.076v-8.59h3.24c0.57,0,1.006,0.027,1.307,0.082c0.422,0.07,0.775,0.204,1.061,0.401
		s0.515,0.474,0.688,0.829s0.261,0.746,0.261,1.172c0,0.73-0.232,1.349-0.697,1.854s-1.305,0.759-2.52,0.759h-2.203v3.492H39.254z
		 M40.391,11.57h2.221c0.734,0,1.256-0.137,1.564-0.41s0.463-0.658,0.463-1.154c0-0.359-0.091-0.667-0.272-0.923
		s-0.421-0.425-0.718-0.507C43.457,8.525,43.104,8.5,42.588,8.5h-2.197V11.57z"/>
	<path fill="#FFFFFF" d="M47.275,16.076v-8.59h3.809c0.766,0,1.348,0.077,1.746,0.231s0.717,0.427,0.955,0.817
		s0.357,0.822,0.357,1.295c0,0.609-0.197,1.123-0.592,1.541s-1.004,0.684-1.828,0.797c0.301,0.145,0.529,0.287,0.686,0.428
		c0.332,0.305,0.646,0.686,0.943,1.143l1.494,2.338h-1.43l-1.137-1.787c-0.332-0.516-0.605-0.91-0.82-1.184
		s-0.407-0.465-0.577-0.574s-0.343-0.186-0.519-0.229c-0.129-0.027-0.34-0.041-0.633-0.041h-1.318v3.814H47.275z M48.412,11.277
		h2.443c0.52,0,0.926-0.054,1.219-0.161s0.516-0.279,0.668-0.516s0.229-0.493,0.229-0.771c0-0.406-0.147-0.74-0.442-1.002
		s-0.761-0.393-1.397-0.393h-2.719V11.277z"/>
	<path fill="#FFFFFF" d="M54.98,16.076l3.299-8.59h1.225l3.516,8.59h-1.295l-1.002-2.602h-3.592l-0.943,2.602H54.98z M57.459,12.549
		h2.912l-0.896-2.379c-0.273-0.723-0.477-1.316-0.609-1.781c-0.109,0.551-0.264,1.098-0.463,1.641L57.459,12.549z"/>
	<path fill="#FFFFFF" d="M63.945,16.076v-8.59h3.809c0.766,0,1.348,0.077,1.746,0.231s0.717,0.427,0.955,0.817
		s0.357,0.822,0.357,1.295c0,0.609-0.197,1.123-0.592,1.541s-1.004,0.684-1.828,0.797c0.301,0.145,0.529,0.287,0.686,0.428
		c0.332,0.305,0.646,0.686,0.943,1.143l1.494,2.338h-1.43l-1.137-1.787c-0.332-0.516-0.605-0.91-0.82-1.184
		s-0.407-0.465-0.577-0.574s-0.343-0.186-0.519-0.229c-0.129-0.027-0.34-0.041-0.633-0.041h-1.318v3.814H63.945z M65.082,11.277
		h2.443c0.52,0,0.926-0.054,1.219-0.161s0.516-0.279,0.668-0.516s0.229-0.493,0.229-0.771c0-0.406-0.147-0.74-0.442-1.002
		s-0.761-0.393-1.397-0.393h-2.719V11.277z"/>
</g>
</svg>
