<?xml version="1.0" encoding="utf-8"?>
<!DOCTYPE svg PUBLIC "-//W3C//DTD SVG 1.1//EN" "http://www.w3.org/Graphics/SVG/1.1/DTD/svg11.dtd">
<svg version="1.1" id="Layer_1" xmlns="http://www.w3.org/2000/svg" xmlns:xlink="http://www.w3.org/1999/xlink" x="0px" y="0px"
	 width="39px" height="25px" viewBox="0 0 39 25" enable-background="new 0 0 39 25" xml:space="preserve">
<rect fill="#F7F7F7" stroke="#989898" stroke-miterlimit="10" width="39" height="25"/>
<g>
	<path fill="#545554" d="M5.789,16.076V8.918h5.176v0.845H6.736v2.192h3.96v0.84h-3.96v2.437h4.395v0.845H5.789z"/>
	<path fill="#545554" d="M11.741,16.076l1.895-2.695l-1.753-2.49h1.099l0.796,1.216c0.15,0.231,0.27,0.425,0.361,0.581
		c0.143-0.215,0.275-0.405,0.396-0.571l0.874-1.226h1.05l-1.792,2.441l1.929,2.744h-1.079l-1.064-1.611l-0.283-0.435l-1.362,2.046
		H11.741z"/>
	<path fill="#545554" d="M20.711,14.177l0.863,0.112c-0.094,0.596-0.336,1.062-0.725,1.399c-0.389,0.336-0.867,0.505-1.433,0.505
		c-0.709,0-1.28-0.231-1.711-0.696c-0.431-0.464-0.647-1.128-0.647-1.994c0-0.56,0.093-1.05,0.278-1.47s0.468-0.735,0.847-0.945
		s0.792-0.315,1.238-0.315c0.563,0,1.024,0.143,1.381,0.427c0.358,0.285,0.588,0.689,0.689,1.213l-0.855,0.132
		c-0.081-0.348-0.225-0.61-0.432-0.786c-0.207-0.176-0.457-0.264-0.75-0.264c-0.443,0-0.802,0.159-1.079,0.476
		s-0.415,0.819-0.415,1.506c0,0.697,0.133,1.203,0.4,1.519s0.615,0.474,1.045,0.474c0.345,0,0.633-0.105,0.865-0.317
		C20.502,14.941,20.648,14.616,20.711,14.177z"/>
	<path fill="#545554" d="M22.307,16.076V8.918h0.879v7.158H22.307z"/>
	<path fill="#545554" d="M27.947,16.076v-0.762c-0.404,0.586-0.953,0.879-1.646,0.879c-0.306,0-0.592-0.059-0.856-0.176
		s-0.462-0.265-0.591-0.442c-0.129-0.177-0.219-0.394-0.271-0.651c-0.035-0.172-0.053-0.445-0.053-0.82v-3.213h0.879v2.876
		c0,0.459,0.018,0.769,0.053,0.928c0.056,0.231,0.173,0.413,0.352,0.544c0.18,0.132,0.4,0.198,0.664,0.198s0.512-0.067,0.742-0.202
		c0.231-0.136,0.395-0.319,0.491-0.553c0.097-0.232,0.144-0.57,0.144-1.013v-2.778h0.879v5.186H27.947z"/>
	<path fill="#545554" d="M30.115,9.929V8.918h0.879v1.011H30.115z M30.115,16.076v-5.186h0.879v5.186H30.115z"/>
	<path fill="#545554" d="M32.322,16.076v-5.186h0.791v0.786c0.201-0.368,0.388-0.61,0.559-0.728s0.359-0.176,0.564-0.176
		c0.296,0,0.597,0.094,0.902,0.283l-0.303,0.815c-0.215-0.127-0.43-0.19-0.645-0.19c-0.191,0-0.364,0.058-0.518,0.173
		c-0.152,0.116-0.262,0.276-0.326,0.481c-0.098,0.313-0.146,0.654-0.146,1.025v2.715H32.322z"/>
</g>
</svg>
