<?xml version="1.0" encoding="utf-8"?>
<!DOCTYPE svg PUBLIC "-//W3C//DTD SVG 1.1//EN" "http://www.w3.org/Graphics/SVG/1.1/DTD/svg11.dtd">
<svg version="1.1" id="Layer_1" xmlns="http://www.w3.org/2000/svg" xmlns:xlink="http://www.w3.org/1999/xlink" x="0px" y="0px"
	 width="82px" height="23px" viewBox="0 0 82 23" enable-background="new 0 0 82 23" xml:space="preserve">
<rect fill="#F7F7F7" stroke="#989898" stroke-miterlimit="10" width="82" height="23"/>
<g>
	<path fill="#545554" d="M10.381,16.076l-3.328-8.59h1.23l2.232,6.24c0.18,0.5,0.33,0.969,0.451,1.406
		c0.133-0.469,0.287-0.938,0.463-1.406l2.32-6.24h1.16l-3.363,8.59H10.381z"/>
	<path fill="#545554" d="M19.393,14.072l1.09,0.135c-0.172,0.637-0.49,1.131-0.955,1.482s-1.059,0.527-1.781,0.527
		c-0.91,0-1.632-0.28-2.165-0.841s-0.8-1.347-0.8-2.358c0-1.047,0.27-1.859,0.809-2.438s1.238-0.867,2.098-0.867
		c0.832,0,1.512,0.283,2.039,0.85s0.791,1.363,0.791,2.391c0,0.063-0.002,0.156-0.006,0.281h-4.641
		c0.039,0.684,0.232,1.207,0.58,1.57s0.781,0.545,1.301,0.545c0.387,0,0.717-0.102,0.99-0.305S19.232,14.518,19.393,14.072z
		 M15.93,12.367h3.475c-0.047-0.523-0.18-0.916-0.398-1.178c-0.336-0.406-0.771-0.609-1.307-0.609c-0.484,0-0.892,0.162-1.222,0.486
		S15.965,11.824,15.93,12.367z"/>
	<path fill="#545554" d="M21.795,16.076V9.854h0.949v0.943c0.242-0.441,0.466-0.732,0.671-0.873s0.431-0.211,0.677-0.211
		c0.355,0,0.717,0.113,1.084,0.34l-0.363,0.979c-0.258-0.152-0.516-0.229-0.773-0.229c-0.23,0-0.438,0.069-0.621,0.208
		s-0.314,0.331-0.393,0.577c-0.117,0.375-0.176,0.785-0.176,1.23v3.258H21.795z"/>
	<path fill="#545554" d="M33.174,16.076v-0.785c-0.395,0.617-0.975,0.926-1.74,0.926c-0.496,0-0.952-0.137-1.368-0.41
		s-0.738-0.655-0.967-1.146s-0.343-1.054-0.343-1.69c0-0.621,0.104-1.185,0.311-1.69s0.518-0.894,0.932-1.163
		s0.877-0.404,1.389-0.404c0.375,0,0.709,0.079,1.002,0.237s0.531,0.364,0.715,0.618V7.486h1.049v8.59H33.174z M29.84,12.971
		c0,0.797,0.168,1.393,0.504,1.787s0.732,0.592,1.189,0.592c0.461,0,0.853-0.188,1.175-0.565s0.483-0.952,0.483-1.726
		c0-0.852-0.164-1.477-0.492-1.875s-0.732-0.598-1.213-0.598c-0.469,0-0.86,0.191-1.175,0.574S29.84,12.146,29.84,12.971z"/>
	<path fill="#545554" d="M40.071,14.072l1.09,0.135c-0.173,0.637-0.491,1.131-0.955,1.482c-0.466,0.352-1.06,0.527-1.781,0.527
		c-0.911,0-1.632-0.28-2.166-0.841s-0.8-1.347-0.8-2.358c0-1.047,0.27-1.859,0.809-2.438s1.238-0.867,2.098-0.867
		c0.832,0,1.512,0.283,2.039,0.85s0.791,1.363,0.791,2.391c0,0.063-0.003,0.156-0.006,0.281h-4.641
		c0.039,0.684,0.232,1.207,0.58,1.57s0.781,0.545,1.301,0.545c0.387,0,0.716-0.102,0.99-0.305
		C39.693,14.842,39.91,14.518,40.071,14.072z M36.607,12.367h3.475c-0.047-0.523-0.181-0.916-0.398-1.178
		c-0.337-0.406-0.772-0.609-1.307-0.609c-0.485,0-0.892,0.162-1.222,0.486S36.643,11.824,36.607,12.367z"/>
	<path fill="#545554" d="M44.787,15.133l0.152,0.932c-0.297,0.063-0.563,0.094-0.797,0.094c-0.383,0-0.68-0.061-0.891-0.182
		s-0.359-0.28-0.445-0.478s-0.129-0.612-0.129-1.245v-3.58h-0.773v-0.82h0.773V8.313l1.049-0.633v2.174h1.061v0.82h-1.061v3.639
		c0,0.301,0.02,0.494,0.057,0.58s0.098,0.154,0.182,0.205s0.203,0.076,0.359,0.076C44.441,15.174,44.596,15.16,44.787,15.133z"/>
	<path fill="#545554" d="M49.879,15.309c-0.391,0.332-0.766,0.566-1.127,0.703s-0.75,0.205-1.164,0.205
		c-0.684,0-1.209-0.167-1.576-0.501s-0.551-0.761-0.551-1.28c0-0.305,0.07-0.583,0.209-0.835s0.32-0.454,0.545-0.606
		s0.477-0.268,0.758-0.346c0.207-0.055,0.52-0.107,0.938-0.158c0.852-0.102,1.479-0.223,1.881-0.363
		c0.004-0.145,0.006-0.236,0.006-0.275c0-0.43-0.1-0.732-0.299-0.908c-0.27-0.238-0.67-0.357-1.201-0.357
		c-0.496,0-0.861,0.087-1.098,0.261s-0.412,0.481-0.525,0.923l-1.031-0.141c0.094-0.441,0.248-0.798,0.463-1.069
		s0.525-0.48,0.932-0.627s0.877-0.22,1.412-0.22c0.531,0,0.963,0.063,1.295,0.188s0.576,0.282,0.732,0.472s0.266,0.429,0.328,0.718
		c0.035,0.18,0.053,0.504,0.053,0.973v1.406c0,0.98,0.023,1.601,0.068,1.86s0.133,0.509,0.266,0.747H50.09
		C49.98,15.857,49.91,15.602,49.879,15.309z M49.791,12.953c-0.383,0.156-0.957,0.289-1.723,0.398
		c-0.434,0.063-0.74,0.133-0.92,0.211s-0.318,0.192-0.416,0.343s-0.146,0.317-0.146,0.501c0,0.281,0.107,0.516,0.32,0.703
		s0.523,0.281,0.934,0.281c0.406,0,0.768-0.089,1.084-0.267s0.549-0.421,0.697-0.729c0.113-0.238,0.17-0.59,0.17-1.055V12.953z"/>
	<path fill="#545554" d="M52.469,16.076v-8.59h1.055v8.59H52.469z"/>
	<path fill="#545554" d="M55.158,16.076v-8.59h1.055v3.082c0.492-0.57,1.113-0.855,1.863-0.855c0.461,0,0.861,0.091,1.201,0.272
		s0.584,0.433,0.73,0.753s0.219,0.785,0.219,1.395v3.943h-1.055v-3.943c0-0.527-0.113-0.911-0.342-1.151s-0.553-0.36-0.971-0.36
		c-0.313,0-0.605,0.081-0.881,0.243s-0.473,0.382-0.59,0.659s-0.176,0.66-0.176,1.148v3.404H55.158z"/>
	<path fill="#545554" d="M66.092,14.072l1.09,0.135c-0.172,0.637-0.49,1.131-0.955,1.482s-1.059,0.527-1.781,0.527
		c-0.91,0-1.631-0.28-2.164-0.841s-0.801-1.347-0.801-2.358c0-1.047,0.27-1.859,0.809-2.438s1.238-0.867,2.098-0.867
		c0.832,0,1.512,0.283,2.039,0.85s0.791,1.363,0.791,2.391c0,0.063-0.002,0.156-0.006,0.281H62.57
		c0.039,0.684,0.232,1.207,0.58,1.57s0.781,0.545,1.301,0.545c0.387,0,0.717-0.102,0.99-0.305S65.932,14.518,66.092,14.072z
		 M62.629,12.367h3.475c-0.047-0.523-0.18-0.916-0.398-1.178c-0.336-0.406-0.771-0.609-1.307-0.609
		c-0.484,0-0.891,0.162-1.221,0.486S62.664,11.824,62.629,12.367z"/>
	<path fill="#545554" d="M68.084,14.219l1.043-0.164c0.059,0.418,0.223,0.738,0.49,0.961s0.641,0.334,1.121,0.334
		c0.484,0,0.844-0.099,1.078-0.296s0.352-0.429,0.352-0.694c0-0.238-0.104-0.426-0.311-0.563c-0.145-0.094-0.504-0.213-1.078-0.357
		c-0.773-0.195-1.309-0.364-1.607-0.507s-0.525-0.34-0.68-0.592s-0.232-0.53-0.232-0.835c0-0.277,0.064-0.534,0.191-0.771
		s0.299-0.433,0.518-0.589c0.164-0.121,0.389-0.224,0.672-0.308s0.586-0.126,0.91-0.126c0.488,0,0.918,0.07,1.287,0.211
		s0.641,0.331,0.816,0.571s0.297,0.562,0.363,0.964L71.986,11.6c-0.047-0.32-0.182-0.57-0.406-0.75s-0.543-0.27-0.953-0.27
		c-0.484,0-0.83,0.08-1.037,0.24s-0.311,0.348-0.311,0.563c0,0.137,0.043,0.26,0.129,0.369c0.086,0.113,0.221,0.207,0.404,0.281
		c0.105,0.039,0.416,0.129,0.932,0.27c0.746,0.199,1.268,0.362,1.563,0.489s0.525,0.312,0.693,0.554s0.252,0.543,0.252,0.902
		c0,0.352-0.102,0.683-0.307,0.993s-0.502,0.551-0.889,0.721s-0.824,0.255-1.313,0.255c-0.809,0-1.424-0.168-1.848-0.504
		S68.201,14.879,68.084,14.219z"/>
</g>
</svg>
