<?xml version="1.0" encoding="utf-8"?>
<!DOCTYPE svg PUBLIC "-//W3C//DTD SVG 1.1//EN" "http://www.w3.org/Graphics/SVG/1.1/DTD/svg11.dtd">
<svg version="1.1" id="Layer_1" xmlns="http://www.w3.org/2000/svg" xmlns:xlink="http://www.w3.org/1999/xlink" x="0px" y="0px"
	 width="494px" height="30px" viewBox="0 0 494 30" enable-background="new 0 0 494 30" xml:space="preserve">
<g>
	<path fill="#364C96" d="M16.729,16.626l1.516,0.383c-0.318,1.245-0.89,2.194-1.715,2.848c-0.826,0.653-1.835,0.98-3.027,0.98
		c-1.234,0-2.238-0.251-3.012-0.754s-1.362-1.23-1.766-2.184c-0.404-0.953-0.605-1.977-0.605-3.07c0-1.192,0.228-2.233,0.684-3.121
		c0.456-0.888,1.104-1.563,1.945-2.023c0.841-0.461,1.767-0.691,2.777-0.691c1.146,0,2.109,0.292,2.891,0.875
		c0.781,0.583,1.325,1.404,1.633,2.461l-1.492,0.352c-0.266-0.833-0.651-1.44-1.156-1.82c-0.505-0.38-1.141-0.57-1.906-0.57
		c-0.88,0-1.616,0.211-2.207,0.633c-0.591,0.422-1.007,0.988-1.246,1.699c-0.24,0.711-0.359,1.444-0.359,2.199
		c0,0.974,0.142,1.824,0.426,2.551c0.284,0.727,0.725,1.27,1.324,1.629c0.599,0.359,1.247,0.539,1.945,0.539
		c0.849,0,1.567-0.245,2.156-0.734C16.123,18.316,16.521,17.59,16.729,16.626z"/>
	<path fill="#364C96" d="M19.409,16.493c0-1.536,0.427-2.674,1.281-3.414c0.713-0.614,1.583-0.922,2.609-0.922
		c1.141,0,2.073,0.374,2.797,1.121c0.724,0.748,1.086,1.78,1.086,3.098c0,1.067-0.16,1.907-0.48,2.52s-0.787,1.087-1.398,1.426
		c-0.612,0.339-1.28,0.508-2.004,0.508c-1.162,0-2.101-0.372-2.816-1.117C19.767,18.967,19.409,17.895,19.409,16.493z
		 M20.854,16.493c0,1.063,0.231,1.858,0.695,2.387c0.463,0.528,1.047,0.793,1.75,0.793c0.698,0,1.278-0.266,1.742-0.797
		c0.463-0.531,0.695-1.341,0.695-2.43c0-1.026-0.233-1.803-0.699-2.332c-0.466-0.528-1.046-0.793-1.738-0.793
		c-0.703,0-1.287,0.263-1.75,0.789C21.086,14.637,20.854,15.431,20.854,16.493z"/>
	<path fill="#364C96" d="M28.831,20.642v-8.297h1.266v1.18c0.609-0.911,1.489-1.367,2.641-1.367c0.5,0,0.959,0.09,1.379,0.27
		c0.419,0.18,0.733,0.416,0.941,0.707c0.208,0.292,0.354,0.638,0.438,1.039c0.052,0.261,0.078,0.716,0.078,1.367v5.102h-1.406
		v-5.047c0-0.573-0.055-1.001-0.164-1.285c-0.109-0.284-0.304-0.51-0.582-0.68c-0.279-0.169-0.605-0.254-0.98-0.254
		c-0.599,0-1.116,0.19-1.551,0.57c-0.435,0.38-0.652,1.102-0.652,2.164v4.531H28.831z"/>
	<path fill="#364C96" d="M38.065,20.642v-7.203h-1.242v-1.094h1.242v-0.883c0-0.557,0.049-0.971,0.148-1.242
		c0.135-0.364,0.374-0.66,0.715-0.887c0.341-0.227,0.819-0.34,1.434-0.34c0.396,0,0.833,0.047,1.313,0.141l-0.211,1.227
		c-0.292-0.052-0.568-0.078-0.828-0.078c-0.427,0-0.729,0.091-0.906,0.273c-0.177,0.183-0.266,0.523-0.266,1.023v0.766h1.617v1.094
		h-1.617v7.203H38.065z"/>
	<path fill="#364C96" d="M42.183,10.806V9.188h1.406v1.617H42.183z M42.183,20.642v-8.297h1.406v8.297H42.183z"/>
	<path fill="#364C96" d="M45.714,20.642v-8.297h1.266v1.258c0.323-0.588,0.621-0.977,0.895-1.164s0.574-0.281,0.902-0.281
		c0.474,0,0.956,0.151,1.445,0.453l-0.484,1.305c-0.344-0.203-0.688-0.305-1.031-0.305c-0.308,0-0.583,0.093-0.828,0.277
		c-0.245,0.185-0.419,0.441-0.523,0.77c-0.156,0.5-0.234,1.047-0.234,1.641v4.344H45.714z"/>
	<path fill="#364C96" d="M51.058,20.642v-8.297h1.258v1.164c0.26-0.406,0.606-0.733,1.039-0.98c0.432-0.247,0.924-0.371,1.477-0.371
		c0.614,0,1.118,0.128,1.512,0.383c0.393,0.255,0.67,0.612,0.832,1.07c0.656-0.969,1.51-1.453,2.563-1.453
		c0.823,0,1.456,0.228,1.898,0.684c0.442,0.456,0.664,1.158,0.664,2.105v5.695h-1.398v-5.227c0-0.563-0.046-0.967-0.137-1.215
		c-0.091-0.247-0.257-0.446-0.496-0.598c-0.24-0.151-0.521-0.227-0.844-0.227c-0.583,0-1.068,0.194-1.453,0.582
		c-0.386,0.388-0.578,1.009-0.578,1.863v4.82h-1.406v-5.391c0-0.625-0.115-1.094-0.344-1.406c-0.229-0.313-0.604-0.469-1.125-0.469
		c-0.396,0-0.762,0.104-1.098,0.313c-0.336,0.208-0.58,0.513-0.73,0.914c-0.151,0.401-0.227,0.979-0.227,1.734v4.305H51.058z"/>
	<path fill="#364C96" d="M69.8,19.618c-0.521,0.442-1.022,0.755-1.504,0.938c-0.482,0.183-0.999,0.273-1.551,0.273
		c-0.912,0-1.612-0.223-2.102-0.668c-0.49-0.445-0.734-1.015-0.734-1.707c0-0.406,0.092-0.777,0.277-1.113
		c0.185-0.336,0.427-0.605,0.727-0.809c0.299-0.203,0.637-0.356,1.012-0.461c0.276-0.073,0.692-0.143,1.25-0.211
		c1.135-0.135,1.971-0.297,2.508-0.484c0.005-0.192,0.008-0.315,0.008-0.367c0-0.573-0.133-0.977-0.398-1.211
		c-0.359-0.317-0.894-0.477-1.602-0.477c-0.662,0-1.15,0.116-1.465,0.348c-0.315,0.232-0.548,0.642-0.699,1.23l-1.375-0.188
		c0.125-0.588,0.331-1.063,0.617-1.426c0.286-0.362,0.7-0.641,1.242-0.836c0.542-0.195,1.169-0.293,1.883-0.293
		c0.708,0,1.284,0.083,1.727,0.25c0.442,0.167,0.768,0.376,0.977,0.629c0.208,0.253,0.354,0.572,0.438,0.957
		c0.047,0.24,0.07,0.672,0.07,1.297v1.875c0,1.308,0.03,2.134,0.09,2.48c0.06,0.347,0.178,0.679,0.355,0.996h-1.469
		C69.935,20.35,69.841,20.009,69.8,19.618z M69.683,16.478c-0.511,0.208-1.276,0.386-2.297,0.531
		c-0.578,0.083-0.987,0.177-1.227,0.281c-0.24,0.104-0.425,0.257-0.555,0.457c-0.13,0.2-0.195,0.423-0.195,0.668
		c0,0.375,0.142,0.688,0.426,0.938c0.284,0.25,0.699,0.375,1.246,0.375c0.542,0,1.023-0.118,1.445-0.355s0.731-0.562,0.93-0.973
		c0.151-0.317,0.227-0.786,0.227-1.406V16.478z"/>
	<path fill="#364C96" d="M78.698,17.603l1.383,0.18c-0.151,0.953-0.538,1.699-1.16,2.238c-0.623,0.539-1.387,0.809-2.293,0.809
		c-1.136,0-2.048-0.371-2.738-1.113c-0.69-0.742-1.035-1.806-1.035-3.191c0-0.896,0.148-1.68,0.445-2.352s0.749-1.176,1.355-1.512
		c0.606-0.336,1.267-0.504,1.98-0.504c0.901,0,1.638,0.228,2.211,0.684c0.573,0.456,0.94,1.103,1.102,1.941l-1.367,0.211
		c-0.13-0.557-0.361-0.977-0.691-1.258c-0.331-0.281-0.73-0.422-1.199-0.422c-0.708,0-1.284,0.254-1.727,0.762
		c-0.443,0.508-0.664,1.312-0.664,2.41c0,1.114,0.213,1.925,0.641,2.43c0.427,0.505,0.984,0.758,1.672,0.758
		c0.552,0,1.013-0.169,1.383-0.508C78.365,18.826,78.599,18.306,78.698,17.603z M75.44,21.688l0.406-1.383h1.047l-0.258,0.836
		c0.442,0.052,0.776,0.188,1,0.41c0.224,0.222,0.336,0.468,0.336,0.738c0,0.391-0.188,0.735-0.563,1.035s-0.94,0.449-1.695,0.449
		c-0.427,0-0.802-0.031-1.125-0.094l0.086-0.914c0.333,0.021,0.578,0.031,0.734,0.031c0.489,0,0.833-0.067,1.031-0.203
		c0.151-0.104,0.227-0.231,0.227-0.383c0-0.094-0.03-0.177-0.09-0.25c-0.06-0.073-0.171-0.136-0.332-0.188
		C76.083,21.723,75.815,21.693,75.44,21.688z"/>
	<path fill="#364C96" d="M86.698,19.618c-0.521,0.442-1.022,0.755-1.504,0.938c-0.482,0.183-0.999,0.273-1.551,0.273
		c-0.912,0-1.612-0.223-2.102-0.668c-0.49-0.445-0.734-1.015-0.734-1.707c0-0.406,0.092-0.777,0.277-1.113
		c0.185-0.336,0.427-0.605,0.727-0.809c0.299-0.203,0.637-0.356,1.012-0.461c0.276-0.073,0.692-0.143,1.25-0.211
		c1.135-0.135,1.971-0.297,2.508-0.484c0.005-0.192,0.008-0.315,0.008-0.367c0-0.573-0.133-0.977-0.398-1.211
		c-0.359-0.317-0.894-0.477-1.602-0.477c-0.662,0-1.15,0.116-1.465,0.348c-0.315,0.232-0.548,0.642-0.699,1.23l-1.375-0.188
		c0.125-0.588,0.331-1.063,0.617-1.426c0.286-0.362,0.7-0.641,1.242-0.836c0.542-0.195,1.169-0.293,1.883-0.293
		c0.708,0,1.284,0.083,1.727,0.25c0.442,0.167,0.768,0.376,0.977,0.629c0.208,0.253,0.354,0.572,0.438,0.957
		c0.047,0.24,0.07,0.672,0.07,1.297v1.875c0,1.308,0.03,2.134,0.09,2.48c0.06,0.347,0.178,0.679,0.355,0.996h-1.469
		C86.833,20.35,86.74,20.009,86.698,19.618z M82.019,11.118c-0.005-0.542,0.143-0.974,0.445-1.297
		c0.297-0.323,0.677-0.484,1.141-0.484c0.323,0,0.763,0.141,1.32,0.422c0.307,0.156,0.552,0.234,0.734,0.234
		c0.167,0,0.294-0.045,0.383-0.137c0.088-0.091,0.151-0.272,0.188-0.543h1.016c-0.016,0.594-0.166,1.039-0.449,1.336
		c-0.284,0.297-0.645,0.445-1.082,0.445c-0.328,0-0.761-0.146-1.297-0.438c-0.349-0.188-0.604-0.281-0.766-0.281
		c-0.177,0-0.32,0.063-0.43,0.188c-0.115,0.125-0.169,0.31-0.164,0.555H82.019z M86.581,16.478
		c-0.511,0.208-1.276,0.386-2.297,0.531c-0.578,0.083-0.987,0.177-1.227,0.281c-0.24,0.104-0.425,0.257-0.555,0.457
		c-0.13,0.2-0.195,0.423-0.195,0.668c0,0.375,0.142,0.688,0.426,0.938c0.284,0.25,0.699,0.375,1.246,0.375
		c0.542,0,1.023-0.118,1.445-0.355s0.731-0.562,0.93-0.973c0.151-0.317,0.227-0.786,0.227-1.406V16.478z"/>
	<path fill="#364C96" d="M89.659,16.493c0-1.536,0.427-2.674,1.281-3.414c0.713-0.614,1.583-0.922,2.609-0.922
		c1.141,0,2.073,0.374,2.797,1.121c0.724,0.748,1.086,1.78,1.086,3.098c0,1.067-0.16,1.907-0.48,2.52s-0.787,1.087-1.398,1.426
		c-0.612,0.339-1.28,0.508-2.004,0.508c-1.162,0-2.101-0.372-2.816-1.117C90.017,18.967,89.659,17.895,89.659,16.493z
		 M91.104,16.493c0,1.063,0.231,1.858,0.695,2.387c0.463,0.528,1.047,0.793,1.75,0.793c0.698,0,1.278-0.266,1.742-0.797
		c0.463-0.531,0.695-1.341,0.695-2.43c0-1.026-0.233-1.803-0.699-2.332c-0.466-0.528-1.046-0.793-1.738-0.793
		c-0.703,0-1.287,0.263-1.75,0.789C91.336,14.637,91.104,15.431,91.104,16.493z"/>
	<path fill="#364C96" d="M108.909,20.642v-1.047c-0.526,0.823-1.3,1.234-2.32,1.234c-0.662,0-1.27-0.183-1.824-0.547
		s-0.984-0.874-1.289-1.527s-0.457-1.405-0.457-2.254c0-0.828,0.138-1.579,0.414-2.254c0.276-0.674,0.69-1.191,1.242-1.551
		c0.552-0.359,1.169-0.539,1.852-0.539c0.5,0,0.945,0.105,1.336,0.316s0.708,0.486,0.953,0.824V9.188h1.398v11.453H108.909z
		 M104.464,16.501c0,1.063,0.224,1.856,0.672,2.383c0.448,0.526,0.977,0.789,1.586,0.789c0.614,0,1.137-0.251,1.566-0.754
		s0.645-1.27,0.645-2.301c0-1.135-0.219-1.969-0.656-2.5s-0.977-0.797-1.617-0.797c-0.625,0-1.147,0.255-1.566,0.766
		C104.673,14.598,104.464,15.402,104.464,16.501z"/>
	<path fill="#364C96" d="M111.901,16.493c0-1.536,0.427-2.674,1.281-3.414c0.713-0.614,1.583-0.922,2.609-0.922
		c1.141,0,2.073,0.374,2.797,1.121c0.724,0.748,1.086,1.78,1.086,3.098c0,1.067-0.16,1.907-0.48,2.52s-0.787,1.087-1.398,1.426
		c-0.612,0.339-1.28,0.508-2.004,0.508c-1.162,0-2.101-0.372-2.816-1.117C112.259,18.967,111.901,17.895,111.901,16.493z
		 M113.347,16.493c0,1.063,0.231,1.858,0.695,2.387c0.463,0.528,1.047,0.793,1.75,0.793c0.698,0,1.278-0.266,1.742-0.797
		c0.463-0.531,0.695-1.341,0.695-2.43c0-1.026-0.233-1.803-0.699-2.332c-0.466-0.528-1.046-0.793-1.738-0.793
		c-0.703,0-1.287,0.263-1.75,0.789C113.578,14.637,113.347,15.431,113.347,16.493z"/>
	<path fill="#364C96" d="M125.769,23.821V12.345h1.281v1.078c0.302-0.422,0.643-0.738,1.023-0.949
		c0.38-0.211,0.841-0.316,1.383-0.316c0.708,0,1.333,0.183,1.875,0.547c0.542,0.365,0.95,0.879,1.227,1.543
		c0.276,0.664,0.414,1.392,0.414,2.184c0,0.849-0.152,1.613-0.457,2.293s-0.748,1.2-1.328,1.563
		c-0.581,0.362-1.191,0.543-1.832,0.543c-0.469,0-0.89-0.099-1.262-0.297c-0.373-0.198-0.679-0.448-0.918-0.75v4.039H125.769z
		 M127.042,16.54c0,1.067,0.216,1.856,0.648,2.367c0.432,0.511,0.956,0.766,1.57,0.766c0.625,0,1.16-0.265,1.605-0.793
		s0.668-1.348,0.668-2.457c0-1.057-0.218-1.849-0.652-2.375c-0.435-0.526-0.955-0.789-1.559-0.789c-0.599,0-1.129,0.28-1.59,0.84
		C127.272,14.659,127.042,15.473,127.042,16.54z"/>
	<path fill="#364C96" d="M140.347,17.97l1.453,0.18c-0.229,0.849-0.654,1.508-1.273,1.977c-0.62,0.469-1.412,0.703-2.375,0.703
		c-1.214,0-2.176-0.374-2.887-1.121s-1.066-1.796-1.066-3.145c0-1.396,0.359-2.479,1.078-3.25c0.719-0.771,1.651-1.156,2.797-1.156
		c1.109,0,2.016,0.378,2.719,1.133c0.703,0.755,1.055,1.818,1.055,3.188c0,0.083-0.003,0.208-0.008,0.375h-6.188
		c0.052,0.911,0.31,1.609,0.773,2.094c0.463,0.484,1.042,0.727,1.734,0.727c0.516,0,0.956-0.136,1.32-0.406
		C139.844,18.996,140.133,18.563,140.347,17.97z M135.729,15.696h4.633c-0.063-0.698-0.24-1.221-0.531-1.57
		c-0.448-0.542-1.029-0.813-1.742-0.813c-0.646,0-1.189,0.216-1.629,0.648C136.02,14.395,135.776,14.973,135.729,15.696z"/>
	<path fill="#364C96" d="M148.948,20.642v-1.047c-0.526,0.823-1.3,1.234-2.32,1.234c-0.662,0-1.27-0.183-1.824-0.547
		s-0.984-0.874-1.289-1.527s-0.457-1.405-0.457-2.254c0-0.828,0.138-1.579,0.414-2.254c0.276-0.674,0.69-1.191,1.242-1.551
		c0.552-0.359,1.169-0.539,1.852-0.539c0.5,0,0.945,0.105,1.336,0.316s0.708,0.486,0.953,0.824V9.188h1.398v11.453H148.948z
		 M144.503,16.501c0,1.063,0.224,1.856,0.672,2.383c0.448,0.526,0.977,0.789,1.586,0.789c0.614,0,1.137-0.251,1.566-0.754
		s0.645-1.27,0.645-2.301c0-1.135-0.219-1.969-0.656-2.5s-0.977-0.797-1.617-0.797c-0.625,0-1.147,0.255-1.566,0.766
		C144.712,14.598,144.503,15.402,144.503,16.501z"/>
	<path fill="#364C96" d="M152.472,10.806V9.188h1.406v1.617H152.472z M152.472,20.642v-8.297h1.406v8.297H152.472z"/>
	<path fill="#364C96" d="M161.401,20.642v-1.047c-0.526,0.823-1.3,1.234-2.32,1.234c-0.662,0-1.27-0.183-1.824-0.547
		s-0.984-0.874-1.289-1.527s-0.457-1.405-0.457-2.254c0-0.828,0.138-1.579,0.414-2.254c0.276-0.674,0.69-1.191,1.242-1.551
		c0.552-0.359,1.169-0.539,1.852-0.539c0.5,0,0.945,0.105,1.336,0.316s0.708,0.486,0.953,0.824V9.188h1.398v11.453H161.401z
		 M156.956,16.501c0,1.063,0.224,1.856,0.672,2.383c0.448,0.526,0.977,0.789,1.586,0.789c0.614,0,1.137-0.251,1.566-0.754
		s0.645-1.27,0.645-2.301c0-1.135-0.219-1.969-0.656-2.5s-0.977-0.797-1.617-0.797c-0.625,0-1.147,0.255-1.566,0.766
		C157.166,14.598,156.956,15.402,156.956,16.501z"/>
	<path fill="#364C96" d="M164.394,16.493c0-1.536,0.427-2.674,1.281-3.414c0.713-0.614,1.583-0.922,2.609-0.922
		c1.141,0,2.073,0.374,2.797,1.121c0.724,0.748,1.086,1.78,1.086,3.098c0,1.067-0.16,1.907-0.48,2.52s-0.787,1.087-1.398,1.426
		c-0.612,0.339-1.28,0.508-2.004,0.508c-1.162,0-2.101-0.372-2.816-1.117C164.751,18.967,164.394,17.895,164.394,16.493z
		 M165.839,16.493c0,1.063,0.231,1.858,0.695,2.387c0.463,0.528,1.047,0.793,1.75,0.793c0.698,0,1.278-0.266,1.742-0.797
		c0.463-0.531,0.695-1.341,0.695-2.43c0-1.026-0.233-1.803-0.699-2.332c-0.466-0.528-1.046-0.793-1.738-0.793
		c-0.703,0-1.287,0.263-1.75,0.789C166.07,14.637,165.839,15.431,165.839,16.493z"/>
</g>
</svg>
