<?xml version="1.0" encoding="utf-8"?>
<!DOCTYPE svg PUBLIC "-//W3C//DTD SVG 1.1//EN" "http://www.w3.org/Graphics/SVG/1.1/DTD/svg11.dtd">
<svg version="1.1" id="Layer_1" xmlns="http://www.w3.org/2000/svg" xmlns:xlink="http://www.w3.org/1999/xlink" x="0px" y="0px"
	 width="494px" height="30px" viewBox="0 0 494 30" enable-background="new 0 0 494 30" xml:space="preserve">
<g>
	<path fill="#364C96" d="M16.729,16.626l1.516,0.383c-0.318,1.245-0.89,2.194-1.715,2.848c-0.826,0.653-1.835,0.98-3.027,0.98
		c-1.234,0-2.238-0.251-3.012-0.754s-1.362-1.23-1.766-2.184c-0.404-0.953-0.605-1.977-0.605-3.07c0-1.192,0.228-2.233,0.684-3.121
		c0.456-0.888,1.104-1.563,1.945-2.023c0.841-0.461,1.767-0.691,2.777-0.691c1.146,0,2.109,0.292,2.891,0.875
		c0.781,0.583,1.325,1.404,1.633,2.461l-1.492,0.352c-0.266-0.833-0.651-1.44-1.156-1.82c-0.505-0.38-1.141-0.57-1.906-0.57
		c-0.88,0-1.616,0.211-2.207,0.633c-0.591,0.422-1.007,0.988-1.246,1.699c-0.24,0.711-0.359,1.444-0.359,2.199
		c0,0.974,0.142,1.824,0.426,2.551c0.284,0.727,0.725,1.27,1.324,1.629c0.599,0.359,1.247,0.539,1.945,0.539
		c0.849,0,1.567-0.245,2.156-0.734C16.123,18.316,16.521,17.59,16.729,16.626z"/>
	<path fill="#364C96" d="M25.347,19.618c-0.521,0.442-1.022,0.755-1.504,0.938c-0.482,0.183-0.999,0.273-1.551,0.273
		c-0.912,0-1.612-0.223-2.102-0.668c-0.49-0.445-0.734-1.015-0.734-1.707c0-0.406,0.092-0.777,0.277-1.113
		c0.185-0.336,0.427-0.605,0.727-0.809c0.299-0.203,0.637-0.356,1.012-0.461c0.276-0.073,0.692-0.143,1.25-0.211
		c1.135-0.135,1.971-0.297,2.508-0.484c0.005-0.192,0.008-0.315,0.008-0.367c0-0.573-0.133-0.977-0.398-1.211
		c-0.359-0.317-0.894-0.477-1.602-0.477c-0.662,0-1.15,0.116-1.465,0.348c-0.315,0.232-0.548,0.642-0.699,1.23l-1.375-0.188
		c0.125-0.588,0.331-1.063,0.617-1.426c0.286-0.362,0.7-0.641,1.242-0.836c0.542-0.195,1.169-0.293,1.883-0.293
		c0.708,0,1.284,0.083,1.727,0.25c0.442,0.167,0.768,0.376,0.977,0.629c0.208,0.253,0.354,0.572,0.438,0.957
		c0.047,0.24,0.07,0.672,0.07,1.297v1.875c0,1.308,0.03,2.134,0.09,2.48c0.06,0.347,0.178,0.679,0.355,0.996h-1.469
		C25.482,20.35,25.388,20.009,25.347,19.618z M25.229,16.478c-0.511,0.208-1.276,0.386-2.297,0.531
		c-0.578,0.083-0.987,0.177-1.227,0.281c-0.24,0.104-0.425,0.257-0.555,0.457c-0.13,0.2-0.195,0.423-0.195,0.668
		c0,0.375,0.142,0.688,0.426,0.938c0.284,0.25,0.699,0.375,1.246,0.375c0.542,0,1.023-0.118,1.445-0.355s0.731-0.562,0.93-0.973
		c0.151-0.317,0.227-0.786,0.227-1.406V16.478z"/>
	<path fill="#364C96" d="M31.901,19.384l0.203,1.242c-0.396,0.083-0.75,0.125-1.063,0.125c-0.511,0-0.906-0.081-1.188-0.242
		s-0.479-0.374-0.594-0.637c-0.115-0.263-0.172-0.816-0.172-1.66v-4.773h-1.031v-1.094h1.031V10.29l1.398-0.844v2.898h1.414v1.094
		h-1.414v4.852c0,0.401,0.024,0.659,0.074,0.773c0.049,0.114,0.13,0.206,0.242,0.273c0.112,0.067,0.272,0.102,0.48,0.102
		C31.44,19.438,31.646,19.42,31.901,19.384z"/>
	<path fill="#364C96" d="M38.956,17.97l1.453,0.18c-0.229,0.849-0.654,1.508-1.273,1.977c-0.62,0.469-1.412,0.703-2.375,0.703
		c-1.214,0-2.176-0.374-2.887-1.121s-1.066-1.796-1.066-3.145c0-1.396,0.359-2.479,1.078-3.25c0.719-0.771,1.651-1.156,2.797-1.156
		c1.109,0,2.016,0.378,2.719,1.133c0.703,0.755,1.055,1.818,1.055,3.188c0,0.083-0.003,0.208-0.008,0.375h-6.188
		c0.052,0.911,0.31,1.609,0.773,2.094c0.463,0.484,1.042,0.727,1.734,0.727c0.516,0,0.956-0.136,1.32-0.406
		C38.453,18.996,38.742,18.563,38.956,17.97z M34.339,15.696h4.633c-0.063-0.698-0.24-1.221-0.531-1.57
		c-0.448-0.542-1.029-0.813-1.742-0.813c-0.646,0-1.189,0.216-1.629,0.648C34.629,14.395,34.386,14.973,34.339,15.696z"/>
	<path fill="#364C96" d="M41.917,21.329l1.367,0.203c0.057,0.422,0.216,0.729,0.477,0.922c0.349,0.261,0.825,0.391,1.43,0.391
		c0.651,0,1.153-0.13,1.508-0.391c0.354-0.261,0.594-0.625,0.719-1.094c0.073-0.286,0.106-0.888,0.102-1.805
		c-0.615,0.724-1.38,1.086-2.297,1.086c-1.141,0-2.023-0.411-2.648-1.234s-0.938-1.81-0.938-2.961c0-0.792,0.143-1.522,0.43-2.191
		c0.286-0.669,0.702-1.186,1.246-1.551c0.544-0.364,1.184-0.547,1.918-0.547c0.979,0,1.786,0.396,2.422,1.188v-1h1.297v7.172
		c0,1.292-0.132,2.207-0.395,2.746c-0.263,0.539-0.68,0.965-1.25,1.277s-1.272,0.469-2.105,0.469c-0.99,0-1.789-0.223-2.398-0.668
		S41.896,22.225,41.917,21.329z M43.081,16.345c0,1.089,0.216,1.883,0.648,2.383c0.432,0.5,0.974,0.75,1.625,0.75
		c0.646,0,1.188-0.249,1.625-0.746s0.656-1.277,0.656-2.34c0-1.016-0.226-1.781-0.676-2.297c-0.451-0.516-0.994-0.773-1.629-0.773
		c-0.625,0-1.156,0.254-1.594,0.762S43.081,15.345,43.081,16.345z"/>
	<path fill="#364C96" d="M50.55,16.493c0-1.536,0.427-2.674,1.281-3.414c0.713-0.614,1.583-0.922,2.609-0.922
		c1.141,0,2.073,0.374,2.797,1.121c0.724,0.748,1.086,1.78,1.086,3.098c0,1.067-0.16,1.907-0.48,2.52s-0.787,1.087-1.398,1.426
		c-0.612,0.339-1.28,0.508-2.004,0.508c-1.162,0-2.101-0.372-2.816-1.117C50.908,18.967,50.55,17.895,50.55,16.493z M51.995,16.493
		c0,1.063,0.231,1.858,0.695,2.387c0.463,0.528,1.047,0.793,1.75,0.793c0.698,0,1.278-0.266,1.742-0.797
		c0.463-0.531,0.695-1.341,0.695-2.43c0-1.026-0.233-1.803-0.699-2.332c-0.466-0.528-1.046-0.793-1.738-0.793
		c-0.703,0-1.287,0.263-1.75,0.789C52.227,14.637,51.995,15.431,51.995,16.493z"/>
	<path fill="#364C96" d="M59.956,20.642v-8.297h1.266v1.258c0.323-0.588,0.621-0.977,0.895-1.164s0.574-0.281,0.902-0.281
		c0.474,0,0.956,0.151,1.445,0.453l-0.484,1.305c-0.344-0.203-0.688-0.305-1.031-0.305c-0.308,0-0.583,0.093-0.828,0.277
		c-0.245,0.185-0.419,0.441-0.523,0.77c-0.156,0.5-0.234,1.047-0.234,1.641v4.344H59.956z"/>
	<path fill="#364C96" d="M65.308,10.806V9.188h1.406v1.617H65.308z M65.308,20.642v-8.297h1.406v8.297H65.308z"/>
	<path fill="#364C96" d="M74.269,19.618c-0.521,0.442-1.022,0.755-1.504,0.938c-0.482,0.183-0.999,0.273-1.551,0.273
		c-0.912,0-1.612-0.223-2.102-0.668c-0.49-0.445-0.734-1.015-0.734-1.707c0-0.406,0.092-0.777,0.277-1.113
		c0.185-0.336,0.427-0.605,0.727-0.809c0.299-0.203,0.637-0.356,1.012-0.461c0.276-0.073,0.692-0.143,1.25-0.211
		c1.135-0.135,1.971-0.297,2.508-0.484c0.005-0.192,0.008-0.315,0.008-0.367c0-0.573-0.133-0.977-0.398-1.211
		c-0.359-0.317-0.894-0.477-1.602-0.477c-0.662,0-1.15,0.116-1.465,0.348c-0.315,0.232-0.548,0.642-0.699,1.23l-1.375-0.188
		c0.125-0.588,0.331-1.063,0.617-1.426c0.286-0.362,0.7-0.641,1.242-0.836c0.542-0.195,1.169-0.293,1.883-0.293
		c0.708,0,1.284,0.083,1.727,0.25c0.442,0.167,0.768,0.376,0.977,0.629c0.208,0.253,0.354,0.572,0.438,0.957
		c0.047,0.24,0.07,0.672,0.07,1.297v1.875c0,1.308,0.03,2.134,0.09,2.48c0.06,0.347,0.178,0.679,0.355,0.996H74.55
		C74.404,20.35,74.31,20.009,74.269,19.618z M74.151,16.478c-0.511,0.208-1.276,0.386-2.297,0.531
		c-0.578,0.083-0.987,0.177-1.227,0.281c-0.24,0.104-0.425,0.257-0.555,0.457c-0.13,0.2-0.195,0.423-0.195,0.668
		c0,0.375,0.142,0.688,0.426,0.938c0.284,0.25,0.699,0.375,1.246,0.375c0.542,0,1.023-0.118,1.445-0.355s0.731-0.562,0.93-0.973
		c0.151-0.317,0.227-0.786,0.227-1.406V16.478z"/>
	<path fill="#364C96" d="M77.19,18.165l1.391-0.219c0.078,0.558,0.295,0.984,0.652,1.281c0.356,0.297,0.855,0.445,1.496,0.445
		c0.646,0,1.125-0.132,1.438-0.395s0.469-0.571,0.469-0.926c0-0.317-0.138-0.567-0.414-0.75c-0.193-0.125-0.672-0.284-1.438-0.477
		c-1.031-0.261-1.746-0.485-2.145-0.676s-0.701-0.453-0.906-0.789c-0.206-0.336-0.309-0.707-0.309-1.113
		c0-0.37,0.084-0.712,0.254-1.027c0.169-0.315,0.399-0.577,0.691-0.785c0.219-0.161,0.517-0.298,0.895-0.41
		c0.377-0.112,0.782-0.168,1.215-0.168c0.651,0,1.223,0.094,1.715,0.281s0.855,0.441,1.09,0.762s0.396,0.749,0.484,1.285
		l-1.375,0.188c-0.063-0.427-0.244-0.76-0.543-1c-0.3-0.239-0.723-0.359-1.27-0.359c-0.646,0-1.107,0.107-1.383,0.32
		c-0.276,0.214-0.414,0.464-0.414,0.75c0,0.183,0.057,0.347,0.172,0.492c0.114,0.151,0.294,0.276,0.539,0.375
		c0.141,0.052,0.555,0.172,1.242,0.359c0.995,0.266,1.688,0.483,2.082,0.652c0.393,0.169,0.702,0.415,0.926,0.738
		c0.224,0.323,0.336,0.724,0.336,1.203c0,0.469-0.137,0.91-0.41,1.324s-0.668,0.734-1.184,0.961s-1.099,0.34-1.75,0.34
		c-1.078,0-1.9-0.224-2.465-0.672C77.707,19.709,77.347,19.045,77.19,18.165z"/>
</g>
</svg>
