<?xml version="1.0" encoding="utf-8"?>
<!DOCTYPE svg PUBLIC "-//W3C//DTD SVG 1.1//EN" "http://www.w3.org/Graphics/SVG/1.1/DTD/svg11.dtd">
<svg version="1.1" id="Layer_1" xmlns="http://www.w3.org/2000/svg" xmlns:xlink="http://www.w3.org/1999/xlink" x="0px" y="0px"
	 width="494px" height="30px" viewBox="0 0 494 30" enable-background="new 0 0 494 30" xml:space="preserve">
<g>
	<path fill="#364C96" d="M8.558,20.642V9.188h3.945c0.891,0,1.57,0.055,2.039,0.164c0.656,0.151,1.216,0.425,1.68,0.82
		c0.604,0.511,1.056,1.163,1.355,1.957c0.299,0.794,0.449,1.702,0.449,2.723c0,0.87-0.102,1.641-0.305,2.313
		s-0.464,1.228-0.781,1.668c-0.318,0.44-0.666,0.786-1.043,1.039c-0.378,0.253-0.833,0.444-1.367,0.574
		c-0.534,0.13-1.147,0.195-1.84,0.195H8.558z M10.073,19.29h2.445c0.755,0,1.348-0.07,1.777-0.211s0.772-0.339,1.027-0.594
		c0.359-0.359,0.639-0.843,0.84-1.449c0.2-0.606,0.301-1.342,0.301-2.207c0-1.198-0.197-2.118-0.59-2.762
		c-0.394-0.643-0.871-1.074-1.434-1.293c-0.406-0.156-1.06-0.234-1.961-0.234h-2.406V19.29z"/>
	<path fill="#364C96" d="M25.612,17.97l1.453,0.18c-0.229,0.849-0.654,1.508-1.273,1.977c-0.62,0.469-1.412,0.703-2.375,0.703
		c-1.214,0-2.176-0.374-2.887-1.121s-1.066-1.796-1.066-3.145c0-1.396,0.359-2.479,1.078-3.25c0.719-0.771,1.651-1.156,2.797-1.156
		c1.109,0,2.016,0.378,2.719,1.133c0.703,0.755,1.055,1.818,1.055,3.188c0,0.083-0.003,0.208-0.008,0.375h-6.188
		c0.052,0.911,0.31,1.609,0.773,2.094c0.463,0.484,1.042,0.727,1.734,0.727c0.516,0,0.956-0.136,1.32-0.406
		C25.109,18.996,25.398,18.563,25.612,17.97z M20.995,15.696h4.633c-0.063-0.698-0.24-1.221-0.531-1.57
		c-0.448-0.542-1.029-0.813-1.742-0.813c-0.646,0-1.189,0.216-1.629,0.648C21.285,14.395,21.042,14.973,20.995,15.696z"/>
	<path fill="#364C96" d="M28.831,23.821V12.345h1.281v1.078c0.302-0.422,0.643-0.738,1.023-0.949
		c0.38-0.211,0.841-0.316,1.383-0.316c0.708,0,1.333,0.183,1.875,0.547c0.542,0.365,0.95,0.879,1.227,1.543
		c0.276,0.664,0.414,1.392,0.414,2.184c0,0.849-0.152,1.613-0.457,2.293s-0.748,1.2-1.328,1.563
		c-0.581,0.362-1.191,0.543-1.832,0.543c-0.469,0-0.89-0.099-1.262-0.297c-0.373-0.198-0.679-0.448-0.918-0.75v4.039H28.831z
		 M30.104,16.54c0,1.067,0.216,1.856,0.648,2.367c0.432,0.511,0.956,0.766,1.57,0.766c0.625,0,1.16-0.265,1.605-0.793
		s0.668-1.348,0.668-2.457c0-1.057-0.218-1.849-0.652-2.375c-0.435-0.526-0.955-0.789-1.559-0.789c-0.599,0-1.129,0.28-1.59,0.84
		C30.335,14.659,30.104,15.473,30.104,16.54z"/>
	<path fill="#364C96" d="M43.144,19.618c-0.521,0.442-1.022,0.755-1.504,0.938c-0.482,0.183-0.999,0.273-1.551,0.273
		c-0.912,0-1.612-0.223-2.102-0.668c-0.49-0.445-0.734-1.015-0.734-1.707c0-0.406,0.092-0.777,0.277-1.113
		c0.185-0.336,0.427-0.605,0.727-0.809c0.299-0.203,0.637-0.356,1.012-0.461c0.276-0.073,0.692-0.143,1.25-0.211
		c1.135-0.135,1.971-0.297,2.508-0.484c0.005-0.192,0.008-0.315,0.008-0.367c0-0.573-0.133-0.977-0.398-1.211
		c-0.359-0.317-0.894-0.477-1.602-0.477c-0.662,0-1.15,0.116-1.465,0.348c-0.315,0.232-0.548,0.642-0.699,1.23l-1.375-0.188
		c0.125-0.588,0.331-1.063,0.617-1.426c0.286-0.362,0.7-0.641,1.242-0.836c0.542-0.195,1.169-0.293,1.883-0.293
		c0.708,0,1.284,0.083,1.727,0.25c0.442,0.167,0.768,0.376,0.977,0.629c0.208,0.253,0.354,0.572,0.438,0.957
		c0.047,0.24,0.07,0.672,0.07,1.297v1.875c0,1.308,0.03,2.134,0.09,2.48c0.06,0.347,0.178,0.679,0.355,0.996h-1.469
		C43.279,20.35,43.185,20.009,43.144,19.618z M43.026,16.478c-0.511,0.208-1.276,0.386-2.297,0.531
		c-0.578,0.083-0.987,0.177-1.227,0.281c-0.24,0.104-0.425,0.257-0.555,0.457c-0.13,0.2-0.195,0.423-0.195,0.668
		c0,0.375,0.142,0.688,0.426,0.938c0.284,0.25,0.699,0.375,1.246,0.375c0.542,0,1.023-0.118,1.445-0.355s0.731-0.562,0.93-0.973
		c0.151-0.317,0.227-0.786,0.227-1.406V16.478z"/>
	<path fill="#364C96" d="M46.612,20.642v-8.297h1.266v1.258c0.323-0.588,0.621-0.977,0.895-1.164s0.574-0.281,0.902-0.281
		c0.474,0,0.956,0.151,1.445,0.453l-0.484,1.305c-0.344-0.203-0.688-0.305-1.031-0.305c-0.308,0-0.583,0.093-0.828,0.277
		c-0.245,0.185-0.419,0.441-0.523,0.77c-0.156,0.5-0.234,1.047-0.234,1.641v4.344H46.612z"/>
	<path fill="#364C96" d="M55.026,19.384l0.203,1.242c-0.396,0.083-0.75,0.125-1.063,0.125c-0.511,0-0.906-0.081-1.188-0.242
		s-0.479-0.374-0.594-0.637c-0.115-0.263-0.172-0.816-0.172-1.66v-4.773h-1.031v-1.094h1.031V10.29l1.398-0.844v2.898h1.414v1.094
		h-1.414v4.852c0,0.401,0.024,0.659,0.074,0.773c0.049,0.114,0.13,0.206,0.242,0.273c0.112,0.067,0.272,0.102,0.48,0.102
		C54.565,19.438,54.771,19.42,55.026,19.384z"/>
	<path fill="#364C96" d="M61.815,19.618c-0.521,0.442-1.022,0.755-1.504,0.938c-0.482,0.183-0.999,0.273-1.551,0.273
		c-0.912,0-1.612-0.223-2.102-0.668c-0.49-0.445-0.734-1.015-0.734-1.707c0-0.406,0.092-0.777,0.277-1.113
		c0.185-0.336,0.427-0.605,0.727-0.809c0.299-0.203,0.637-0.356,1.012-0.461c0.276-0.073,0.692-0.143,1.25-0.211
		c1.135-0.135,1.971-0.297,2.508-0.484c0.005-0.192,0.008-0.315,0.008-0.367c0-0.573-0.133-0.977-0.398-1.211
		c-0.359-0.317-0.894-0.477-1.602-0.477c-0.662,0-1.15,0.116-1.465,0.348c-0.315,0.232-0.548,0.642-0.699,1.23l-1.375-0.188
		c0.125-0.588,0.331-1.063,0.617-1.426c0.286-0.362,0.7-0.641,1.242-0.836c0.542-0.195,1.169-0.293,1.883-0.293
		c0.708,0,1.284,0.083,1.727,0.25c0.442,0.167,0.768,0.376,0.977,0.629c0.208,0.253,0.354,0.572,0.438,0.957
		c0.047,0.24,0.07,0.672,0.07,1.297v1.875c0,1.308,0.03,2.134,0.09,2.48c0.06,0.347,0.178,0.679,0.355,0.996h-1.469
		C61.951,20.35,61.857,20.009,61.815,19.618z M61.698,16.478c-0.511,0.208-1.276,0.386-2.297,0.531
		c-0.578,0.083-0.987,0.177-1.227,0.281c-0.24,0.104-0.425,0.257-0.555,0.457c-0.13,0.2-0.195,0.423-0.195,0.668
		c0,0.375,0.142,0.688,0.426,0.938c0.284,0.25,0.699,0.375,1.246,0.375c0.542,0,1.023-0.118,1.445-0.355s0.731-0.562,0.93-0.973
		c0.151-0.317,0.227-0.786,0.227-1.406V16.478z"/>
	<path fill="#364C96" d="M65.3,20.642v-8.297h1.258v1.164c0.26-0.406,0.606-0.733,1.039-0.98c0.432-0.247,0.924-0.371,1.477-0.371
		c0.614,0,1.118,0.128,1.512,0.383c0.393,0.255,0.67,0.612,0.832,1.07c0.656-0.969,1.51-1.453,2.563-1.453
		c0.823,0,1.456,0.228,1.898,0.684c0.442,0.456,0.664,1.158,0.664,2.105v5.695h-1.398v-5.227c0-0.563-0.046-0.967-0.137-1.215
		c-0.091-0.247-0.257-0.446-0.496-0.598c-0.24-0.151-0.521-0.227-0.844-0.227c-0.583,0-1.068,0.194-1.453,0.582
		c-0.386,0.388-0.578,1.009-0.578,1.863v4.82h-1.406v-5.391c0-0.625-0.115-1.094-0.344-1.406c-0.229-0.313-0.604-0.469-1.125-0.469
		c-0.396,0-0.762,0.104-1.098,0.313c-0.336,0.208-0.58,0.513-0.73,0.914c-0.151,0.401-0.227,0.979-0.227,1.734v4.305H65.3z"/>
	<path fill="#364C96" d="M84.308,17.97l1.453,0.18c-0.229,0.849-0.654,1.508-1.273,1.977c-0.62,0.469-1.412,0.703-2.375,0.703
		c-1.214,0-2.176-0.374-2.887-1.121s-1.066-1.796-1.066-3.145c0-1.396,0.359-2.479,1.078-3.25c0.719-0.771,1.651-1.156,2.797-1.156
		c1.109,0,2.016,0.378,2.719,1.133c0.703,0.755,1.055,1.818,1.055,3.188c0,0.083-0.003,0.208-0.008,0.375h-6.188
		c0.052,0.911,0.31,1.609,0.773,2.094c0.463,0.484,1.042,0.727,1.734,0.727c0.516,0,0.956-0.136,1.32-0.406
		C83.805,18.996,84.094,18.563,84.308,17.97z M79.69,15.696h4.633c-0.063-0.698-0.24-1.221-0.531-1.57
		c-0.448-0.542-1.029-0.813-1.742-0.813c-0.646,0-1.189,0.216-1.629,0.648C79.98,14.395,79.737,14.973,79.69,15.696z"/>
	<path fill="#364C96" d="M87.526,20.642v-8.297h1.266v1.18c0.609-0.911,1.489-1.367,2.641-1.367c0.5,0,0.959,0.09,1.379,0.27
		c0.419,0.18,0.733,0.416,0.941,0.707c0.208,0.292,0.354,0.638,0.438,1.039c0.052,0.261,0.078,0.716,0.078,1.367v5.102h-1.406
		v-5.047c0-0.573-0.055-1.001-0.164-1.285c-0.109-0.284-0.304-0.51-0.582-0.68c-0.279-0.169-0.605-0.254-0.98-0.254
		c-0.599,0-1.116,0.19-1.551,0.57c-0.435,0.38-0.652,1.102-0.652,2.164v4.531H87.526z"/>
	<path fill="#364C96" d="M99.495,19.384l0.203,1.242c-0.396,0.083-0.75,0.125-1.063,0.125c-0.511,0-0.906-0.081-1.188-0.242
		s-0.479-0.374-0.594-0.637c-0.115-0.263-0.172-0.816-0.172-1.66v-4.773h-1.031v-1.094h1.031V10.29l1.398-0.844v2.898h1.414v1.094
		h-1.414v4.852c0,0.401,0.024,0.659,0.074,0.773c0.049,0.114,0.13,0.206,0.242,0.273c0.112,0.067,0.272,0.102,0.48,0.102
		C99.034,19.438,99.24,19.42,99.495,19.384z"/>
	<path fill="#364C96" d="M100.347,16.493c0-1.536,0.427-2.674,1.281-3.414c0.713-0.614,1.583-0.922,2.609-0.922
		c1.141,0,2.073,0.374,2.797,1.121c0.724,0.748,1.086,1.78,1.086,3.098c0,1.067-0.16,1.907-0.48,2.52s-0.787,1.087-1.398,1.426
		c-0.612,0.339-1.28,0.508-2.004,0.508c-1.162,0-2.101-0.372-2.816-1.117C100.705,18.967,100.347,17.895,100.347,16.493z
		 M101.792,16.493c0,1.063,0.231,1.858,0.695,2.387c0.463,0.528,1.047,0.793,1.75,0.793c0.698,0,1.278-0.266,1.742-0.797
		c0.463-0.531,0.695-1.341,0.695-2.43c0-1.026-0.233-1.803-0.699-2.332c-0.466-0.528-1.046-0.793-1.738-0.793
		c-0.703,0-1.287,0.263-1.75,0.789C102.023,14.637,101.792,15.431,101.792,16.493z"/>
	<path fill="#364C96" d="M109.206,18.165l1.391-0.219c0.078,0.558,0.295,0.984,0.652,1.281c0.356,0.297,0.855,0.445,1.496,0.445
		c0.646,0,1.125-0.132,1.438-0.395s0.469-0.571,0.469-0.926c0-0.317-0.138-0.567-0.414-0.75c-0.193-0.125-0.672-0.284-1.438-0.477
		c-1.031-0.261-1.746-0.485-2.145-0.676s-0.701-0.453-0.906-0.789c-0.206-0.336-0.309-0.707-0.309-1.113
		c0-0.37,0.084-0.712,0.254-1.027c0.169-0.315,0.399-0.577,0.691-0.785c0.219-0.161,0.517-0.298,0.895-0.41
		c0.377-0.112,0.782-0.168,1.215-0.168c0.651,0,1.223,0.094,1.715,0.281s0.855,0.441,1.09,0.762s0.396,0.749,0.484,1.285
		l-1.375,0.188c-0.063-0.427-0.244-0.76-0.543-1c-0.3-0.239-0.723-0.359-1.27-0.359c-0.646,0-1.107,0.107-1.383,0.32
		c-0.276,0.214-0.414,0.464-0.414,0.75c0,0.183,0.057,0.347,0.172,0.492c0.114,0.151,0.294,0.276,0.539,0.375
		c0.141,0.052,0.555,0.172,1.242,0.359c0.995,0.266,1.688,0.483,2.082,0.652c0.393,0.169,0.702,0.415,0.926,0.738
		c0.224,0.323,0.336,0.724,0.336,1.203c0,0.469-0.137,0.91-0.41,1.324s-0.668,0.734-1.184,0.961s-1.099,0.34-1.75,0.34
		c-1.078,0-1.9-0.224-2.465-0.672C109.723,19.709,109.362,19.045,109.206,18.165z"/>
</g>
</svg>
