<?xml version="1.0" encoding="utf-8"?>
<!DOCTYPE svg PUBLIC "-//W3C//DTD SVG 1.1//EN" "http://www.w3.org/Graphics/SVG/1.1/DTD/svg11.dtd">
<svg version="1.1" id="Layer_1" xmlns="http://www.w3.org/2000/svg" xmlns:xlink="http://www.w3.org/1999/xlink" x="0px" y="0px"
	 width="494px" height="30px" viewBox="0 0 494 30" enable-background="new 0 0 494 30" xml:space="preserve">
<g>
	<path fill="#364C96" d="M8.589,20.642V9.188h8.281v1.352h-6.766v3.508h6.336v1.344h-6.336v3.898h7.031v1.352H8.589z"/>
	<path fill="#364C96" d="M19.05,20.642v-8.297h1.266v1.18c0.609-0.911,1.489-1.367,2.641-1.367c0.5,0,0.959,0.09,1.379,0.27
		c0.419,0.18,0.733,0.416,0.941,0.707c0.208,0.292,0.354,0.638,0.438,1.039c0.052,0.261,0.078,0.716,0.078,1.367v5.102h-1.406
		v-5.047c0-0.573-0.055-1.001-0.164-1.285c-0.109-0.284-0.304-0.51-0.582-0.68c-0.279-0.169-0.605-0.254-0.98-0.254
		c-0.599,0-1.116,0.19-1.551,0.57c-0.435,0.38-0.652,1.102-0.652,2.164v4.531H19.05z"/>
	<path fill="#364C96" d="M30.253,20.642l-3.156-8.297h1.484l1.781,4.969c0.192,0.536,0.37,1.094,0.531,1.672
		c0.125-0.438,0.299-0.964,0.523-1.578l1.844-5.063h1.445l-3.141,8.297H30.253z"/>
	<path fill="#364C96" d="M35.956,10.806V9.188h1.406v1.617H35.956z M35.956,20.642v-8.297h1.406v8.297H35.956z"/>
	<path fill="#364C96" d="M38.979,16.493c0-1.536,0.427-2.674,1.281-3.414c0.713-0.614,1.583-0.922,2.609-0.922
		c1.141,0,2.073,0.374,2.797,1.121c0.724,0.748,1.086,1.78,1.086,3.098c0,1.067-0.16,1.907-0.48,2.52s-0.787,1.087-1.398,1.426
		c-0.612,0.339-1.28,0.508-2.004,0.508c-1.162,0-2.101-0.372-2.816-1.117C39.337,18.967,38.979,17.895,38.979,16.493z
		 M40.425,16.493c0,1.063,0.231,1.858,0.695,2.387c0.463,0.528,1.047,0.793,1.75,0.793c0.698,0,1.278-0.266,1.742-0.797
		c0.463-0.531,0.695-1.341,0.695-2.43c0-1.026-0.233-1.803-0.699-2.332c-0.466-0.528-1.046-0.793-1.738-0.793
		c-0.703,0-1.287,0.263-1.75,0.789C40.656,14.637,40.425,15.431,40.425,16.493z"/>
	<path fill="#364C96" d="M58.229,20.642v-1.047c-0.526,0.823-1.3,1.234-2.32,1.234c-0.662,0-1.27-0.183-1.824-0.547
		s-0.984-0.874-1.289-1.527s-0.457-1.405-0.457-2.254c0-0.828,0.138-1.579,0.414-2.254c0.276-0.674,0.69-1.191,1.242-1.551
		c0.552-0.359,1.169-0.539,1.852-0.539c0.5,0,0.945,0.105,1.336,0.316s0.708,0.486,0.953,0.824V9.188h1.398v11.453H58.229z
		 M53.784,16.501c0,1.063,0.224,1.856,0.672,2.383c0.448,0.526,0.977,0.789,1.586,0.789c0.614,0,1.137-0.251,1.566-0.754
		s0.645-1.27,0.645-2.301c0-1.135-0.219-1.969-0.656-2.5s-0.977-0.797-1.617-0.797c-0.625,0-1.147,0.255-1.566,0.766
		C53.994,14.598,53.784,15.402,53.784,16.501z"/>
	<path fill="#364C96" d="M61.222,16.493c0-1.536,0.427-2.674,1.281-3.414c0.713-0.614,1.583-0.922,2.609-0.922
		c1.141,0,2.073,0.374,2.797,1.121c0.724,0.748,1.086,1.78,1.086,3.098c0,1.067-0.16,1.907-0.48,2.52s-0.787,1.087-1.398,1.426
		c-0.612,0.339-1.28,0.508-2.004,0.508c-1.162,0-2.101-0.372-2.816-1.117C61.58,18.967,61.222,17.895,61.222,16.493z M62.667,16.493
		c0,1.063,0.231,1.858,0.695,2.387c0.463,0.528,1.047,0.793,1.75,0.793c0.698,0,1.278-0.266,1.742-0.797
		c0.463-0.531,0.695-1.341,0.695-2.43c0-1.026-0.233-1.803-0.699-2.332c-0.466-0.528-1.046-0.793-1.738-0.793
		c-0.703,0-1.287,0.263-1.75,0.789C62.898,14.637,62.667,15.431,62.667,16.493z"/>
	<path fill="#364C96" d="M75.089,23.821V12.345h1.281v1.078c0.302-0.422,0.643-0.738,1.023-0.949
		c0.38-0.211,0.841-0.316,1.383-0.316c0.708,0,1.333,0.183,1.875,0.547c0.542,0.365,0.95,0.879,1.227,1.543
		c0.276,0.664,0.414,1.392,0.414,2.184c0,0.849-0.152,1.613-0.457,2.293s-0.748,1.2-1.328,1.563
		c-0.581,0.362-1.191,0.543-1.832,0.543c-0.469,0-0.89-0.099-1.262-0.297c-0.373-0.198-0.679-0.448-0.918-0.75v4.039H75.089z
		 M76.362,16.54c0,1.067,0.216,1.856,0.648,2.367c0.432,0.511,0.956,0.766,1.57,0.766c0.625,0,1.16-0.265,1.605-0.793
		s0.668-1.348,0.668-2.457c0-1.057-0.218-1.849-0.652-2.375c-0.435-0.526-0.955-0.789-1.559-0.789c-0.599,0-1.129,0.28-1.59,0.84
		C76.593,14.659,76.362,15.473,76.362,16.54z"/>
	<path fill="#364C96" d="M89.667,17.97l1.453,0.18c-0.229,0.849-0.654,1.508-1.273,1.977c-0.62,0.469-1.412,0.703-2.375,0.703
		c-1.214,0-2.176-0.374-2.887-1.121s-1.066-1.796-1.066-3.145c0-1.396,0.359-2.479,1.078-3.25c0.719-0.771,1.651-1.156,2.797-1.156
		c1.109,0,2.016,0.378,2.719,1.133c0.703,0.755,1.055,1.818,1.055,3.188c0,0.083-0.003,0.208-0.008,0.375h-6.188
		c0.052,0.911,0.31,1.609,0.773,2.094c0.463,0.484,1.042,0.727,1.734,0.727c0.516,0,0.956-0.136,1.32-0.406
		C89.164,18.996,89.453,18.563,89.667,17.97z M85.05,15.696h4.633c-0.063-0.698-0.24-1.221-0.531-1.57
		c-0.448-0.542-1.029-0.813-1.742-0.813c-0.646,0-1.189,0.216-1.629,0.648C85.34,14.395,85.097,14.973,85.05,15.696z"/>
	<path fill="#364C96" d="M98.269,20.642v-1.047c-0.526,0.823-1.3,1.234-2.32,1.234c-0.662,0-1.27-0.183-1.824-0.547
		s-0.984-0.874-1.289-1.527s-0.457-1.405-0.457-2.254c0-0.828,0.138-1.579,0.414-2.254c0.276-0.674,0.69-1.191,1.242-1.551
		c0.552-0.359,1.169-0.539,1.852-0.539c0.5,0,0.945,0.105,1.336,0.316s0.708,0.486,0.953,0.824V9.188h1.398v11.453H98.269z
		 M93.823,16.501c0,1.063,0.224,1.856,0.672,2.383c0.448,0.526,0.977,0.789,1.586,0.789c0.614,0,1.137-0.251,1.566-0.754
		s0.645-1.27,0.645-2.301c0-1.135-0.219-1.969-0.656-2.5s-0.977-0.797-1.617-0.797c-0.625,0-1.147,0.255-1.566,0.766
		C94.033,14.598,93.823,15.402,93.823,16.501z"/>
	<path fill="#364C96" d="M101.792,10.806V9.188h1.406v1.617H101.792z M101.792,20.642v-8.297h1.406v8.297H101.792z"/>
	<path fill="#364C96" d="M110.722,20.642v-1.047c-0.526,0.823-1.3,1.234-2.32,1.234c-0.662,0-1.27-0.183-1.824-0.547
		s-0.984-0.874-1.289-1.527s-0.457-1.405-0.457-2.254c0-0.828,0.138-1.579,0.414-2.254c0.276-0.674,0.69-1.191,1.242-1.551
		c0.552-0.359,1.169-0.539,1.852-0.539c0.5,0,0.945,0.105,1.336,0.316s0.708,0.486,0.953,0.824V9.188h1.398v11.453H110.722z
		 M106.276,16.501c0,1.063,0.224,1.856,0.672,2.383c0.448,0.526,0.977,0.789,1.586,0.789c0.614,0,1.137-0.251,1.566-0.754
		s0.645-1.27,0.645-2.301c0-1.135-0.219-1.969-0.656-2.5s-0.977-0.797-1.617-0.797c-0.625,0-1.147,0.255-1.566,0.766
		C106.486,14.598,106.276,15.402,106.276,16.501z"/>
	<path fill="#364C96" d="M113.714,16.493c0-1.536,0.427-2.674,1.281-3.414c0.713-0.614,1.583-0.922,2.609-0.922
		c1.141,0,2.073,0.374,2.797,1.121c0.724,0.748,1.086,1.78,1.086,3.098c0,1.067-0.16,1.907-0.48,2.52s-0.787,1.087-1.398,1.426
		c-0.612,0.339-1.28,0.508-2.004,0.508c-1.162,0-2.101-0.372-2.816-1.117C114.072,18.967,113.714,17.895,113.714,16.493z
		 M115.159,16.493c0,1.063,0.231,1.858,0.695,2.387c0.463,0.528,1.047,0.793,1.75,0.793c0.698,0,1.278-0.266,1.742-0.797
		c0.463-0.531,0.695-1.341,0.695-2.43c0-1.026-0.233-1.803-0.699-2.332c-0.466-0.528-1.046-0.793-1.738-0.793
		c-0.703,0-1.287,0.263-1.75,0.789C115.391,14.637,115.159,15.431,115.159,16.493z"/>
</g>
</svg>
