<?xml version="1.0" encoding="utf-8"?>
<!DOCTYPE svg PUBLIC "-//W3C//DTD SVG 1.1//EN" "http://www.w3.org/Graphics/SVG/1.1/DTD/svg11.dtd">
<svg version="1.1" id="Layer_1" xmlns="http://www.w3.org/2000/svg" xmlns:xlink="http://www.w3.org/1999/xlink" x="0px" y="0px"
	 width="494px" height="30px" viewBox="0 0 494 30" enable-background="new 0 0 494 30" xml:space="preserve">
<g>
	<path fill="#364C96" d="M8.636,20.642V9.188h7.727v1.352h-6.211v3.547h5.375v1.352h-5.375v5.203H8.636z"/>
	<path fill="#364C96" d="M23.565,19.618c-0.521,0.442-1.022,0.755-1.504,0.938c-0.482,0.183-0.999,0.273-1.551,0.273
		c-0.912,0-1.612-0.223-2.102-0.668c-0.49-0.445-0.734-1.015-0.734-1.707c0-0.406,0.092-0.777,0.277-1.113
		c0.185-0.336,0.427-0.605,0.727-0.809c0.299-0.203,0.637-0.356,1.012-0.461c0.276-0.073,0.692-0.143,1.25-0.211
		c1.135-0.135,1.971-0.297,2.508-0.484c0.005-0.192,0.008-0.315,0.008-0.367c0-0.573-0.133-0.977-0.398-1.211
		c-0.359-0.317-0.894-0.477-1.602-0.477c-0.662,0-1.15,0.116-1.465,0.348c-0.315,0.232-0.548,0.642-0.699,1.23l-1.375-0.188
		c0.125-0.588,0.331-1.063,0.617-1.426c0.286-0.362,0.7-0.641,1.242-0.836c0.542-0.195,1.169-0.293,1.883-0.293
		c0.708,0,1.284,0.083,1.727,0.25c0.442,0.167,0.768,0.376,0.977,0.629c0.208,0.253,0.354,0.572,0.438,0.957
		c0.047,0.24,0.07,0.672,0.07,1.297v1.875c0,1.308,0.03,2.134,0.09,2.48c0.06,0.347,0.178,0.679,0.355,0.996h-1.469
		C23.701,20.35,23.607,20.009,23.565,19.618z M23.448,16.478c-0.511,0.208-1.276,0.386-2.297,0.531
		c-0.578,0.083-0.987,0.177-1.227,0.281c-0.24,0.104-0.425,0.257-0.555,0.457c-0.13,0.2-0.195,0.423-0.195,0.668
		c0,0.375,0.142,0.688,0.426,0.938c0.284,0.25,0.699,0.375,1.246,0.375c0.542,0,1.023-0.118,1.445-0.355s0.731-0.562,0.93-0.973
		c0.151-0.317,0.227-0.786,0.227-1.406V16.478z"/>
	<path fill="#364C96" d="M27.019,20.642V9.188h1.406v11.453H27.019z"/>
	<path fill="#364C96" d="M36.284,17.97l1.453,0.18c-0.229,0.849-0.654,1.508-1.273,1.977c-0.62,0.469-1.412,0.703-2.375,0.703
		c-1.214,0-2.176-0.374-2.887-1.121s-1.066-1.796-1.066-3.145c0-1.396,0.359-2.479,1.078-3.25c0.719-0.771,1.651-1.156,2.797-1.156
		c1.109,0,2.016,0.378,2.719,1.133c0.703,0.755,1.055,1.818,1.055,3.188c0,0.083-0.003,0.208-0.008,0.375h-6.188
		c0.052,0.911,0.31,1.609,0.773,2.094c0.463,0.484,1.042,0.727,1.734,0.727c0.516,0,0.956-0.136,1.32-0.406
		C35.781,18.996,36.07,18.563,36.284,17.97z M31.667,15.696H36.3c-0.063-0.698-0.24-1.221-0.531-1.57
		c-0.448-0.542-1.029-0.813-1.742-0.813c-0.646,0-1.189,0.216-1.629,0.648C31.957,14.395,31.714,14.973,31.667,15.696z"/>
	<path fill="#364C96" d="M49.362,17.603l1.383,0.18c-0.151,0.953-0.538,1.699-1.16,2.238c-0.623,0.539-1.387,0.809-2.293,0.809
		c-1.136,0-2.048-0.371-2.738-1.113c-0.69-0.742-1.035-1.806-1.035-3.191c0-0.896,0.148-1.68,0.445-2.352s0.749-1.176,1.355-1.512
		c0.606-0.336,1.267-0.504,1.98-0.504c0.901,0,1.638,0.228,2.211,0.684c0.573,0.456,0.94,1.103,1.102,1.941l-1.367,0.211
		c-0.13-0.557-0.361-0.977-0.691-1.258c-0.331-0.281-0.73-0.422-1.199-0.422c-0.708,0-1.284,0.254-1.727,0.762
		c-0.443,0.508-0.664,1.312-0.664,2.41c0,1.114,0.213,1.925,0.641,2.43c0.427,0.505,0.984,0.758,1.672,0.758
		c0.552,0,1.013-0.169,1.383-0.508C49.029,18.826,49.263,18.306,49.362,17.603z"/>
	<path fill="#364C96" d="M51.425,16.493c0-1.536,0.427-2.674,1.281-3.414c0.713-0.614,1.583-0.922,2.609-0.922
		c1.141,0,2.073,0.374,2.797,1.121c0.724,0.748,1.086,1.78,1.086,3.098c0,1.067-0.16,1.907-0.48,2.52s-0.787,1.087-1.398,1.426
		c-0.612,0.339-1.28,0.508-2.004,0.508c-1.162,0-2.101-0.372-2.816-1.117C51.783,18.967,51.425,17.895,51.425,16.493z M52.87,16.493
		c0,1.063,0.231,1.858,0.695,2.387c0.463,0.528,1.047,0.793,1.75,0.793c0.698,0,1.278-0.266,1.742-0.797
		c0.463-0.531,0.695-1.341,0.695-2.43c0-1.026-0.233-1.803-0.699-2.332c-0.466-0.528-1.046-0.793-1.738-0.793
		c-0.703,0-1.287,0.263-1.75,0.789C53.102,14.637,52.87,15.431,52.87,16.493z"/>
	<path fill="#364C96" d="M60.847,20.642v-8.297h1.266v1.18c0.609-0.911,1.489-1.367,2.641-1.367c0.5,0,0.959,0.09,1.379,0.27
		c0.419,0.18,0.733,0.416,0.941,0.707c0.208,0.292,0.354,0.638,0.438,1.039c0.052,0.261,0.078,0.716,0.078,1.367v5.102h-1.406
		v-5.047c0-0.573-0.055-1.001-0.164-1.285c-0.109-0.284-0.304-0.51-0.582-0.68c-0.279-0.169-0.605-0.254-0.98-0.254
		c-0.599,0-1.116,0.19-1.551,0.57c-0.435,0.38-0.652,1.102-0.652,2.164v4.531H60.847z"/>
	<path fill="#364C96" d="M69.222,16.493c0-1.536,0.427-2.674,1.281-3.414c0.713-0.614,1.583-0.922,2.609-0.922
		c1.141,0,2.073,0.374,2.797,1.121c0.724,0.748,1.086,1.78,1.086,3.098c0,1.067-0.16,1.907-0.48,2.52s-0.787,1.087-1.398,1.426
		c-0.612,0.339-1.28,0.508-2.004,0.508c-1.162,0-2.101-0.372-2.816-1.117C69.58,18.967,69.222,17.895,69.222,16.493z M70.667,16.493
		c0,1.063,0.231,1.858,0.695,2.387c0.463,0.528,1.047,0.793,1.75,0.793c0.698,0,1.278-0.266,1.742-0.797
		c0.463-0.531,0.695-1.341,0.695-2.43c0-1.026-0.233-1.803-0.699-2.332c-0.466-0.528-1.046-0.793-1.738-0.793
		c-0.703,0-1.287,0.263-1.75,0.789C70.898,14.637,70.667,15.431,70.667,16.493z"/>
	<path fill="#364C96" d="M78.081,18.165l1.391-0.219c0.078,0.558,0.295,0.984,0.652,1.281c0.356,0.297,0.855,0.445,1.496,0.445
		c0.646,0,1.125-0.132,1.438-0.395s0.469-0.571,0.469-0.926c0-0.317-0.138-0.567-0.414-0.75c-0.193-0.125-0.672-0.284-1.438-0.477
		c-1.031-0.261-1.746-0.485-2.145-0.676s-0.701-0.453-0.906-0.789c-0.206-0.336-0.309-0.707-0.309-1.113
		c0-0.37,0.084-0.712,0.254-1.027c0.169-0.315,0.399-0.577,0.691-0.785c0.219-0.161,0.517-0.298,0.895-0.41
		c0.377-0.112,0.782-0.168,1.215-0.168c0.651,0,1.223,0.094,1.715,0.281s0.855,0.441,1.09,0.762s0.396,0.749,0.484,1.285
		l-1.375,0.188c-0.063-0.427-0.244-0.76-0.543-1c-0.3-0.239-0.723-0.359-1.27-0.359c-0.646,0-1.107,0.107-1.383,0.32
		c-0.276,0.214-0.414,0.464-0.414,0.75c0,0.183,0.057,0.347,0.172,0.492c0.114,0.151,0.294,0.276,0.539,0.375
		c0.141,0.052,0.555,0.172,1.242,0.359c0.995,0.266,1.688,0.483,2.082,0.652c0.393,0.169,0.702,0.415,0.926,0.738
		c0.224,0.323,0.336,0.724,0.336,1.203c0,0.469-0.137,0.91-0.41,1.324s-0.668,0.734-1.184,0.961s-1.099,0.34-1.75,0.34
		c-1.078,0-1.9-0.224-2.465-0.672C78.598,19.709,78.237,19.045,78.081,18.165z"/>
	<path fill="#364C96" d="M92.058,17.603l1.383,0.18c-0.151,0.953-0.538,1.699-1.16,2.238c-0.623,0.539-1.387,0.809-2.293,0.809
		c-1.136,0-2.048-0.371-2.738-1.113c-0.69-0.742-1.035-1.806-1.035-3.191c0-0.896,0.148-1.68,0.445-2.352s0.749-1.176,1.355-1.512
		c0.606-0.336,1.267-0.504,1.98-0.504c0.901,0,1.638,0.228,2.211,0.684c0.573,0.456,0.94,1.103,1.102,1.941l-1.367,0.211
		c-0.13-0.557-0.361-0.977-0.691-1.258c-0.331-0.281-0.73-0.422-1.199-0.422c-0.708,0-1.284,0.254-1.727,0.762
		c-0.443,0.508-0.664,1.312-0.664,2.41c0,1.114,0.213,1.925,0.641,2.43c0.427,0.505,0.984,0.758,1.672,0.758
		c0.552,0,1.013-0.169,1.383-0.508C91.724,18.826,91.958,18.306,92.058,17.603z"/>
	<path fill="#364C96" d="M94.12,16.493c0-1.536,0.427-2.674,1.281-3.414c0.713-0.614,1.583-0.922,2.609-0.922
		c1.141,0,2.073,0.374,2.797,1.121c0.724,0.748,1.086,1.78,1.086,3.098c0,1.067-0.16,1.907-0.48,2.52s-0.787,1.087-1.398,1.426
		c-0.612,0.339-1.28,0.508-2.004,0.508c-1.162,0-2.101-0.372-2.816-1.117C94.478,18.967,94.12,17.895,94.12,16.493z M95.565,16.493
		c0,1.063,0.231,1.858,0.695,2.387c0.463,0.528,1.047,0.793,1.75,0.793c0.698,0,1.278-0.266,1.742-0.797
		c0.463-0.531,0.695-1.341,0.695-2.43c0-1.026-0.233-1.803-0.699-2.332c-0.466-0.528-1.046-0.793-1.738-0.793
		c-0.703,0-1.287,0.263-1.75,0.789C95.797,14.637,95.565,15.431,95.565,16.493z"/>
</g>
</svg>