<?xml version="1.0" encoding="utf-8"?>
<!DOCTYPE svg PUBLIC "-//W3C//DTD SVG 1.1//EN" "http://www.w3.org/Graphics/SVG/1.1/DTD/svg11.dtd">
<svg version="1.1" id="Layer_1" xmlns="http://www.w3.org/2000/svg" xmlns:xlink="http://www.w3.org/1999/xlink" x="0px" y="0px"
	 width="494px" height="30px" viewBox="0 0 494 30" enable-background="new 0 0 494 30" xml:space="preserve">
<g>
	<path fill="#364C96" d="M13.917,16.149v-1.344l4.852-0.008v4.25c-0.745,0.594-1.513,1.04-2.305,1.34
		c-0.792,0.3-1.604,0.449-2.438,0.449c-1.125,0-2.147-0.241-3.066-0.723c-0.919-0.481-1.613-1.179-2.082-2.09
		s-0.703-1.93-0.703-3.055c0-1.114,0.233-2.155,0.699-3.121c0.466-0.966,1.137-1.684,2.012-2.152s1.883-0.703,3.023-0.703
		c0.828,0,1.577,0.134,2.246,0.402c0.669,0.269,1.194,0.642,1.574,1.121c0.38,0.479,0.669,1.104,0.867,1.875l-1.367,0.375
		c-0.172-0.583-0.386-1.042-0.641-1.375c-0.255-0.333-0.62-0.6-1.094-0.801c-0.474-0.2-1-0.301-1.578-0.301
		c-0.693,0-1.292,0.105-1.797,0.316c-0.505,0.211-0.913,0.488-1.223,0.832c-0.31,0.344-0.551,0.722-0.723,1.133
		c-0.292,0.708-0.438,1.477-0.438,2.305c0,1.021,0.176,1.875,0.527,2.563s0.863,1.198,1.535,1.531s1.385,0.5,2.141,0.5
		c0.656,0,1.297-0.126,1.922-0.379s1.099-0.522,1.422-0.809v-2.133H13.917z"/>
	<path fill="#364C96" d="M20.808,20.642v-8.297h1.266v1.258c0.323-0.588,0.621-0.977,0.895-1.164s0.574-0.281,0.902-0.281
		c0.474,0,0.956,0.151,1.445,0.453l-0.484,1.305c-0.344-0.203-0.688-0.305-1.031-0.305c-0.308,0-0.583,0.093-0.828,0.277
		c-0.245,0.185-0.419,0.441-0.523,0.77c-0.156,0.5-0.234,1.047-0.234,1.641v4.344H20.808z"/>
	<path fill="#364C96" d="M26.159,10.806V9.188h1.406v1.617H26.159z M26.159,20.642v-8.297h1.406v8.297H26.159z"/>
	<path fill="#364C96" d="M30.042,20.642v-7.203H28.8v-1.094h1.242v-0.883c0-0.557,0.049-0.971,0.148-1.242
		c0.135-0.364,0.374-0.66,0.715-0.887c0.341-0.227,0.819-0.34,1.434-0.34c0.396,0,0.833,0.047,1.313,0.141L33.44,10.36
		c-0.292-0.052-0.568-0.078-0.828-0.078c-0.427,0-0.729,0.091-0.906,0.273c-0.177,0.183-0.266,0.523-0.266,1.023v0.766h1.617v1.094
		H31.44v7.203H30.042z"/>
	<path fill="#364C96" d="M34.198,20.642v-7.203h-1.242v-1.094h1.242v-0.883c0-0.557,0.049-0.971,0.148-1.242
		c0.135-0.364,0.374-0.66,0.715-0.887c0.341-0.227,0.819-0.34,1.434-0.34c0.396,0,0.833,0.047,1.313,0.141l-0.211,1.227
		c-0.292-0.052-0.568-0.078-0.828-0.078c-0.427,0-0.729,0.091-0.906,0.273c-0.177,0.183-0.266,0.523-0.266,1.023v0.766h1.617v1.094
		h-1.617v7.203H34.198z"/>
	<path fill="#364C96" d="M43.987,17.97l1.453,0.18c-0.229,0.849-0.654,1.508-1.273,1.977c-0.62,0.469-1.412,0.703-2.375,0.703
		c-1.214,0-2.176-0.374-2.887-1.121s-1.066-1.796-1.066-3.145c0-1.396,0.359-2.479,1.078-3.25c0.719-0.771,1.651-1.156,2.797-1.156
		c1.109,0,2.016,0.378,2.719,1.133c0.703,0.755,1.055,1.818,1.055,3.188c0,0.083-0.003,0.208-0.008,0.375h-6.188
		c0.052,0.911,0.31,1.609,0.773,2.094c0.463,0.484,1.042,0.727,1.734,0.727c0.516,0,0.956-0.136,1.32-0.406
		C43.484,18.996,43.773,18.563,43.987,17.97z M39.37,15.696h4.633c-0.063-0.698-0.24-1.221-0.531-1.57
		c-0.448-0.542-1.029-0.813-1.742-0.813c-0.646,0-1.189,0.216-1.629,0.648C39.66,14.395,39.417,14.973,39.37,15.696z"/>
	<path fill="#364C96" d="M46.644,18.165l1.391-0.219c0.078,0.558,0.295,0.984,0.652,1.281c0.356,0.297,0.855,0.445,1.496,0.445
		c0.646,0,1.125-0.132,1.438-0.395s0.469-0.571,0.469-0.926c0-0.317-0.138-0.567-0.414-0.75c-0.193-0.125-0.672-0.284-1.438-0.477
		c-1.031-0.261-1.746-0.485-2.145-0.676s-0.701-0.453-0.906-0.789c-0.206-0.336-0.309-0.707-0.309-1.113
		c0-0.37,0.084-0.712,0.254-1.027c0.169-0.315,0.399-0.577,0.691-0.785c0.219-0.161,0.517-0.298,0.895-0.41
		c0.377-0.112,0.782-0.168,1.215-0.168c0.651,0,1.223,0.094,1.715,0.281s0.855,0.441,1.09,0.762s0.396,0.749,0.484,1.285
		l-1.375,0.188c-0.063-0.427-0.244-0.76-0.543-1c-0.3-0.239-0.723-0.359-1.27-0.359c-0.646,0-1.107,0.107-1.383,0.32
		c-0.276,0.214-0.414,0.464-0.414,0.75c0,0.183,0.057,0.347,0.172,0.492c0.114,0.151,0.294,0.276,0.539,0.375
		c0.141,0.052,0.555,0.172,1.242,0.359c0.995,0.266,1.688,0.483,2.082,0.652c0.393,0.169,0.702,0.415,0.926,0.738
		c0.224,0.323,0.336,0.724,0.336,1.203c0,0.469-0.137,0.91-0.41,1.324s-0.668,0.734-1.184,0.961s-1.099,0.34-1.75,0.34
		c-1.078,0-1.9-0.224-2.465-0.672C47.16,19.709,46.8,19.045,46.644,18.165z"/>
</g>
</svg>
