<?xml version="1.0" encoding="utf-8"?>
<!DOCTYPE svg PUBLIC "-//W3C//DTD SVG 1.1//EN" "http://www.w3.org/Graphics/SVG/1.1/DTD/svg11.dtd">
<svg version="1.1" id="Layer_1" xmlns="http://www.w3.org/2000/svg" xmlns:xlink="http://www.w3.org/1999/xlink" x="0px" y="0px"
	 width="494px" height="30px" viewBox="0 0 494 30" enable-background="new 0 0 494 30" xml:space="preserve">
<g>
	<path fill="#364C96" d="M13.917,16.149v-1.344l4.852-0.008v4.25c-0.745,0.594-1.513,1.04-2.305,1.34
		c-0.792,0.3-1.604,0.449-2.438,0.449c-1.125,0-2.147-0.241-3.066-0.723c-0.919-0.481-1.613-1.179-2.082-2.09
		s-0.703-1.93-0.703-3.055c0-1.114,0.233-2.155,0.699-3.121c0.466-0.966,1.137-1.684,2.012-2.152s1.883-0.703,3.023-0.703
		c0.828,0,1.577,0.134,2.246,0.402c0.669,0.269,1.194,0.642,1.574,1.121c0.38,0.479,0.669,1.104,0.867,1.875l-1.367,0.375
		c-0.172-0.583-0.386-1.042-0.641-1.375c-0.255-0.333-0.62-0.6-1.094-0.801c-0.474-0.2-1-0.301-1.578-0.301
		c-0.693,0-1.292,0.105-1.797,0.316c-0.505,0.211-0.913,0.488-1.223,0.832c-0.31,0.344-0.551,0.722-0.723,1.133
		c-0.292,0.708-0.438,1.477-0.438,2.305c0,1.021,0.176,1.875,0.527,2.563s0.863,1.198,1.535,1.531s1.385,0.5,2.141,0.5
		c0.656,0,1.297-0.126,1.922-0.379s1.099-0.522,1.422-0.809v-2.133H13.917z"/>
	<path fill="#364C96" d="M20.808,20.642v-8.297h1.266v1.258c0.323-0.588,0.621-0.977,0.895-1.164s0.574-0.281,0.902-0.281
		c0.474,0,0.956,0.151,1.445,0.453l-0.484,1.305c-0.344-0.203-0.688-0.305-1.031-0.305c-0.308,0-0.583,0.093-0.828,0.277
		c-0.245,0.185-0.419,0.441-0.523,0.77c-0.156,0.5-0.234,1.047-0.234,1.641v4.344H20.808z"/>
	<path fill="#364C96" d="M31.589,20.642v-1.219c-0.646,0.938-1.523,1.406-2.633,1.406c-0.49,0-0.947-0.094-1.371-0.281
		c-0.425-0.188-0.74-0.423-0.945-0.707c-0.206-0.284-0.351-0.632-0.434-1.043c-0.058-0.276-0.086-0.714-0.086-1.313v-5.141h1.406
		v4.602c0,0.734,0.028,1.229,0.086,1.484c0.088,0.37,0.276,0.66,0.563,0.871c0.286,0.211,0.641,0.316,1.063,0.316
		s0.817-0.108,1.188-0.324c0.37-0.216,0.631-0.511,0.785-0.883c0.153-0.372,0.23-0.913,0.23-1.621v-4.445h1.406v8.297H31.589z"/>
	<path fill="#364C96" d="M35.05,23.821V12.345h1.281v1.078c0.302-0.422,0.643-0.738,1.023-0.949c0.38-0.211,0.841-0.316,1.383-0.316
		c0.708,0,1.333,0.183,1.875,0.547c0.542,0.365,0.95,0.879,1.227,1.543c0.276,0.664,0.414,1.392,0.414,2.184
		c0,0.849-0.152,1.613-0.457,2.293s-0.748,1.2-1.328,1.563c-0.581,0.362-1.191,0.543-1.832,0.543c-0.469,0-0.89-0.099-1.262-0.297
		c-0.373-0.198-0.679-0.448-0.918-0.75v4.039H35.05z M36.323,16.54c0,1.067,0.216,1.856,0.648,2.367
		c0.432,0.511,0.956,0.766,1.57,0.766c0.625,0,1.16-0.265,1.605-0.793s0.668-1.348,0.668-2.457c0-1.057-0.218-1.849-0.652-2.375
		c-0.435-0.526-0.955-0.789-1.559-0.789c-0.599,0-1.129,0.28-1.59,0.84C36.554,14.659,36.323,15.473,36.323,16.54z"/>
	<path fill="#364C96" d="M43.425,16.493c0-1.536,0.427-2.674,1.281-3.414c0.713-0.614,1.583-0.922,2.609-0.922
		c1.141,0,2.073,0.374,2.797,1.121c0.724,0.748,1.086,1.78,1.086,3.098c0,1.067-0.16,1.907-0.48,2.52s-0.787,1.087-1.398,1.426
		c-0.612,0.339-1.28,0.508-2.004,0.508c-1.162,0-2.101-0.372-2.816-1.117C43.783,18.967,43.425,17.895,43.425,16.493z M44.87,16.493
		c0,1.063,0.231,1.858,0.695,2.387c0.463,0.528,1.047,0.793,1.75,0.793c0.698,0,1.278-0.266,1.742-0.797
		c0.463-0.531,0.695-1.341,0.695-2.43c0-1.026-0.233-1.803-0.699-2.332c-0.466-0.528-1.046-0.793-1.738-0.793
		c-0.703,0-1.287,0.263-1.75,0.789C45.102,14.637,44.87,15.431,44.87,16.493z"/>
	<path fill="#364C96" d="M52.284,18.165l1.391-0.219c0.078,0.558,0.295,0.984,0.652,1.281c0.356,0.297,0.855,0.445,1.496,0.445
		c0.646,0,1.125-0.132,1.438-0.395s0.469-0.571,0.469-0.926c0-0.317-0.138-0.567-0.414-0.75c-0.193-0.125-0.672-0.284-1.438-0.477
		c-1.031-0.261-1.746-0.485-2.145-0.676s-0.701-0.453-0.906-0.789c-0.206-0.336-0.309-0.707-0.309-1.113
		c0-0.37,0.084-0.712,0.254-1.027c0.169-0.315,0.399-0.577,0.691-0.785c0.219-0.161,0.517-0.298,0.895-0.41
		c0.377-0.112,0.782-0.168,1.215-0.168c0.651,0,1.223,0.094,1.715,0.281s0.855,0.441,1.09,0.762s0.396,0.749,0.484,1.285
		l-1.375,0.188c-0.063-0.427-0.244-0.76-0.543-1c-0.3-0.239-0.723-0.359-1.27-0.359c-0.646,0-1.107,0.107-1.383,0.32
		c-0.276,0.214-0.414,0.464-0.414,0.75c0,0.183,0.057,0.347,0.172,0.492c0.114,0.151,0.294,0.276,0.539,0.375
		c0.141,0.052,0.555,0.172,1.242,0.359c0.995,0.266,1.688,0.483,2.082,0.652c0.393,0.169,0.702,0.415,0.926,0.738
		c0.224,0.323,0.336,0.724,0.336,1.203c0,0.469-0.137,0.91-0.41,1.324s-0.668,0.734-1.184,0.961s-1.099,0.34-1.75,0.34
		c-1.078,0-1.9-0.224-2.465-0.672C52.801,19.709,52.44,19.045,52.284,18.165z"/>
</g>
</svg>
