<?xml version="1.0" encoding="utf-8"?>
<!DOCTYPE svg PUBLIC "-//W3C//DTD SVG 1.1//EN" "http://www.w3.org/Graphics/SVG/1.1/DTD/svg11.dtd">
<svg version="1.1" id="Layer_1" xmlns="http://www.w3.org/2000/svg" xmlns:xlink="http://www.w3.org/1999/xlink" x="0px" y="0px"
	 width="494px" height="30px" viewBox="0 0 494 30" enable-background="new 0 0 494 30" xml:space="preserve">
<g>
	<path fill="#364C96" d="M8.815,20.642V9.188h1.516v11.453H8.815z"/>
	<path fill="#364C96" d="M12.823,20.642v-8.297h1.266v1.18c0.609-0.911,1.489-1.367,2.641-1.367c0.5,0,0.959,0.09,1.379,0.27
		c0.419,0.18,0.733,0.416,0.941,0.707c0.208,0.292,0.354,0.638,0.438,1.039c0.052,0.261,0.078,0.716,0.078,1.367v5.102h-1.406
		v-5.047c0-0.573-0.055-1.001-0.164-1.285c-0.109-0.284-0.304-0.51-0.582-0.68c-0.279-0.169-0.605-0.254-0.98-0.254
		c-0.599,0-1.116,0.19-1.551,0.57c-0.435,0.38-0.652,1.102-0.652,2.164v4.531H12.823z"/>
	<path fill="#364C96" d="M27.104,20.642v-1.047c-0.526,0.823-1.3,1.234-2.32,1.234c-0.662,0-1.27-0.183-1.824-0.547
		s-0.984-0.874-1.289-1.527s-0.457-1.405-0.457-2.254c0-0.828,0.138-1.579,0.414-2.254c0.276-0.674,0.69-1.191,1.242-1.551
		c0.552-0.359,1.169-0.539,1.852-0.539c0.5,0,0.945,0.105,1.336,0.316s0.708,0.486,0.953,0.824V9.188h1.398v11.453H27.104z
		 M22.659,16.501c0,1.063,0.224,1.856,0.672,2.383c0.448,0.526,0.977,0.789,1.586,0.789c0.614,0,1.137-0.251,1.566-0.754
		s0.645-1.27,0.645-2.301c0-1.135-0.219-1.969-0.656-2.5s-0.977-0.797-1.617-0.797c-0.625,0-1.147,0.255-1.566,0.766
		C22.869,14.598,22.659,15.402,22.659,16.501z"/>
	<path fill="#364C96" d="M30.628,10.806V9.188h1.406v1.617H30.628z M30.628,20.642v-8.297h1.406v8.297H30.628z"/>
	<path fill="#364C96" d="M39.464,23.821v-4.063c-0.219,0.308-0.525,0.563-0.918,0.766c-0.394,0.203-0.812,0.305-1.254,0.305
		c-0.984,0-1.832-0.394-2.543-1.18s-1.066-1.864-1.066-3.234c0-0.833,0.145-1.581,0.434-2.242c0.289-0.661,0.708-1.163,1.258-1.504
		c0.549-0.341,1.152-0.512,1.809-0.512c1.026,0,1.833,0.433,2.422,1.297v-1.109h1.266v11.477H39.464z M35.128,16.47
		c0,1.067,0.224,1.868,0.672,2.402c0.448,0.534,0.984,0.801,1.609,0.801c0.599,0,1.114-0.254,1.547-0.762
		c0.432-0.508,0.648-1.28,0.648-2.316c0-1.104-0.228-1.935-0.684-2.492c-0.456-0.557-0.991-0.836-1.605-0.836
		c-0.609,0-1.126,0.259-1.551,0.777C35.34,14.563,35.128,15.371,35.128,16.47z"/>
	<path fill="#364C96" d="M48.511,20.642v-1.219c-0.646,0.938-1.523,1.406-2.633,1.406c-0.49,0-0.947-0.094-1.371-0.281
		c-0.425-0.188-0.74-0.423-0.945-0.707c-0.206-0.284-0.351-0.632-0.434-1.043c-0.058-0.276-0.086-0.714-0.086-1.313v-5.141h1.406
		v4.602c0,0.734,0.028,1.229,0.086,1.484c0.088,0.37,0.276,0.66,0.563,0.871c0.286,0.211,0.641,0.316,1.063,0.316
		s0.817-0.108,1.188-0.324c0.37-0.216,0.631-0.511,0.785-0.883c0.153-0.372,0.23-0.913,0.23-1.621v-4.445h1.406v8.297H48.511z"/>
	<path fill="#364C96" d="M57.651,17.97l1.453,0.18c-0.229,0.849-0.654,1.508-1.273,1.977c-0.62,0.469-1.412,0.703-2.375,0.703
		c-1.214,0-2.176-0.374-2.887-1.121s-1.066-1.796-1.066-3.145c0-1.396,0.359-2.479,1.078-3.25c0.719-0.771,1.651-1.156,2.797-1.156
		c1.109,0,2.016,0.378,2.719,1.133c0.703,0.755,1.055,1.818,1.055,3.188c0,0.083-0.003,0.208-0.008,0.375h-6.188
		c0.052,0.911,0.31,1.609,0.773,2.094c0.463,0.484,1.042,0.727,1.734,0.727c0.516,0,0.956-0.136,1.32-0.406
		C57.148,18.996,57.438,18.563,57.651,17.97z M53.034,15.696h4.633c-0.063-0.698-0.24-1.221-0.531-1.57
		c-0.448-0.542-1.029-0.813-1.742-0.813c-0.646,0-1.189,0.216-1.629,0.648C53.324,14.395,53.081,14.973,53.034,15.696z"/>
	<path fill="#364C96" d="M70.729,19.618c-0.521,0.442-1.022,0.755-1.504,0.938c-0.482,0.183-0.999,0.273-1.551,0.273
		c-0.912,0-1.612-0.223-2.102-0.668c-0.49-0.445-0.734-1.015-0.734-1.707c0-0.406,0.092-0.777,0.277-1.113
		c0.185-0.336,0.427-0.605,0.727-0.809c0.299-0.203,0.637-0.356,1.012-0.461c0.276-0.073,0.692-0.143,1.25-0.211
		c1.135-0.135,1.971-0.297,2.508-0.484c0.005-0.192,0.008-0.315,0.008-0.367c0-0.573-0.133-0.977-0.398-1.211
		c-0.359-0.317-0.894-0.477-1.602-0.477c-0.662,0-1.15,0.116-1.465,0.348c-0.315,0.232-0.548,0.642-0.699,1.23l-1.375-0.188
		c0.125-0.588,0.331-1.063,0.617-1.426c0.286-0.362,0.7-0.641,1.242-0.836c0.542-0.195,1.169-0.293,1.883-0.293
		c0.708,0,1.284,0.083,1.727,0.25c0.442,0.167,0.768,0.376,0.977,0.629c0.208,0.253,0.354,0.572,0.438,0.957
		c0.047,0.24,0.07,0.672,0.07,1.297v1.875c0,1.308,0.03,2.134,0.09,2.48c0.06,0.347,0.178,0.679,0.355,0.996h-1.469
		C70.865,20.35,70.771,20.009,70.729,19.618z M70.612,16.478c-0.511,0.208-1.276,0.386-2.297,0.531
		c-0.578,0.083-0.987,0.177-1.227,0.281c-0.24,0.104-0.425,0.257-0.555,0.457c-0.13,0.2-0.195,0.423-0.195,0.668
		c0,0.375,0.142,0.688,0.426,0.938c0.284,0.25,0.699,0.375,1.246,0.375c0.542,0,1.023-0.118,1.445-0.355s0.731-0.562,0.93-0.973
		c0.151-0.317,0.227-0.786,0.227-1.406V16.478z"/>
	<path fill="#364C96" d="M78.628,20.642V9.188h1.406v11.453H78.628z"/>
	<path fill="#364C96" d="M81.69,16.493c0-1.536,0.427-2.674,1.281-3.414c0.713-0.614,1.583-0.922,2.609-0.922
		c1.141,0,2.073,0.374,2.797,1.121c0.724,0.748,1.086,1.78,1.086,3.098c0,1.067-0.16,1.907-0.48,2.52s-0.787,1.087-1.398,1.426
		c-0.612,0.339-1.28,0.508-2.004,0.508c-1.162,0-2.101-0.372-2.816-1.117C82.048,18.967,81.69,17.895,81.69,16.493z M83.136,16.493
		c0,1.063,0.231,1.858,0.695,2.387c0.463,0.528,1.047,0.793,1.75,0.793c0.698,0,1.278-0.266,1.742-0.797
		c0.463-0.531,0.695-1.341,0.695-2.43c0-1.026-0.233-1.803-0.699-2.332c-0.466-0.528-1.046-0.793-1.738-0.793
		c-0.703,0-1.287,0.263-1.75,0.789C83.367,14.637,83.136,15.431,83.136,16.493z"/>
	<path fill="#364C96" d="M89.323,23.86l0.266-1.195c0.281,0.073,0.502,0.109,0.664,0.109c0.286,0,0.5-0.095,0.641-0.285
		s0.211-0.665,0.211-1.426v-8.719h1.406v8.75c0,1.021-0.133,1.731-0.398,2.133c-0.339,0.521-0.901,0.781-1.688,0.781
		C90.045,24.009,89.678,23.959,89.323,23.86z M91.104,10.821V9.188h1.406v1.633H91.104z"/>
	<path fill="#364C96" d="M100.081,19.618c-0.521,0.442-1.022,0.755-1.504,0.938c-0.482,0.183-0.999,0.273-1.551,0.273
		c-0.912,0-1.612-0.223-2.102-0.668c-0.49-0.445-0.734-1.015-0.734-1.707c0-0.406,0.092-0.777,0.277-1.113
		c0.185-0.336,0.427-0.605,0.727-0.809c0.299-0.203,0.637-0.356,1.012-0.461c0.276-0.073,0.692-0.143,1.25-0.211
		c1.135-0.135,1.971-0.297,2.508-0.484c0.005-0.192,0.008-0.315,0.008-0.367c0-0.573-0.133-0.977-0.398-1.211
		c-0.359-0.317-0.894-0.477-1.602-0.477c-0.662,0-1.15,0.116-1.465,0.348c-0.315,0.232-0.548,0.642-0.699,1.23l-1.375-0.188
		c0.125-0.588,0.331-1.063,0.617-1.426c0.286-0.362,0.7-0.641,1.242-0.836c0.542-0.195,1.169-0.293,1.883-0.293
		c0.708,0,1.284,0.083,1.727,0.25c0.442,0.167,0.768,0.376,0.977,0.629c0.208,0.253,0.354,0.572,0.438,0.957
		c0.047,0.24,0.07,0.672,0.07,1.297v1.875c0,1.308,0.03,2.134,0.09,2.48c0.06,0.347,0.178,0.679,0.355,0.996h-1.469
		C100.216,20.35,100.123,20.009,100.081,19.618z M99.964,16.478c-0.511,0.208-1.276,0.386-2.297,0.531
		c-0.578,0.083-0.987,0.177-1.227,0.281c-0.24,0.104-0.425,0.257-0.555,0.457c-0.13,0.2-0.195,0.423-0.195,0.668
		c0,0.375,0.142,0.688,0.426,0.938c0.284,0.25,0.699,0.375,1.246,0.375c0.542,0,1.023-0.118,1.445-0.355s0.731-0.562,0.93-0.973
		c0.151-0.317,0.227-0.786,0.227-1.406V16.478z"/>
</g>
</svg>
