<?xml version="1.0" encoding="utf-8"?>
<!DOCTYPE svg PUBLIC "-//W3C//DTD SVG 1.1//EN" "http://www.w3.org/Graphics/SVG/1.1/DTD/svg11.dtd">
<svg version="1.1" id="Layer_1" xmlns="http://www.w3.org/2000/svg" xmlns:xlink="http://www.w3.org/1999/xlink" x="0px" y="0px"
	 width="494px" height="30px" viewBox="0 0 494 30" enable-background="new 0 0 494 30" xml:space="preserve">
<g>
	<path fill="#364C96" d="M8.495,20.642V9.188h1.516V19.29h5.641v1.352H8.495z"/>
	<path fill="#364C96" d="M17.284,10.806V9.188h1.406v1.617H17.284z M17.284,20.642v-8.297h1.406v8.297H17.284z"/>
	<path fill="#364C96" d="M20.831,20.642v-8.297h1.266v1.18c0.609-0.911,1.489-1.367,2.641-1.367c0.5,0,0.959,0.09,1.379,0.27
		c0.419,0.18,0.733,0.416,0.941,0.707c0.208,0.292,0.354,0.638,0.438,1.039c0.052,0.261,0.078,0.716,0.078,1.367v5.102h-1.406
		v-5.047c0-0.573-0.055-1.001-0.164-1.285c-0.109-0.284-0.304-0.51-0.582-0.68c-0.279-0.169-0.605-0.254-0.98-0.254
		c-0.599,0-1.116,0.19-1.551,0.57c-0.435,0.38-0.652,1.102-0.652,2.164v4.531H20.831z"/>
	<path fill="#364C96" d="M29.729,20.642V9.188h1.406v4.109c0.656-0.76,1.484-1.141,2.484-1.141c0.614,0,1.148,0.121,1.602,0.363
		s0.777,0.577,0.973,1.004c0.195,0.427,0.293,1.047,0.293,1.859v5.258h-1.406v-5.258c0-0.703-0.152-1.215-0.457-1.535
		s-0.736-0.48-1.293-0.48c-0.417,0-0.809,0.108-1.176,0.324c-0.367,0.216-0.629,0.509-0.785,0.879
		c-0.156,0.37-0.234,0.88-0.234,1.531v4.539H29.729z"/>
	<path fill="#364C96" d="M44.042,19.618c-0.521,0.442-1.022,0.755-1.504,0.938c-0.482,0.183-0.999,0.273-1.551,0.273
		c-0.912,0-1.612-0.223-2.102-0.668c-0.49-0.445-0.734-1.015-0.734-1.707c0-0.406,0.092-0.777,0.277-1.113
		c0.185-0.336,0.427-0.605,0.727-0.809c0.299-0.203,0.637-0.356,1.012-0.461c0.276-0.073,0.692-0.143,1.25-0.211
		c1.135-0.135,1.971-0.297,2.508-0.484c0.005-0.192,0.008-0.315,0.008-0.367c0-0.573-0.133-0.977-0.398-1.211
		c-0.359-0.317-0.894-0.477-1.602-0.477c-0.662,0-1.15,0.116-1.465,0.348c-0.315,0.232-0.548,0.642-0.699,1.23l-1.375-0.188
		c0.125-0.588,0.331-1.063,0.617-1.426c0.286-0.362,0.7-0.641,1.242-0.836c0.542-0.195,1.169-0.293,1.883-0.293
		c0.708,0,1.284,0.083,1.727,0.25c0.442,0.167,0.768,0.376,0.977,0.629c0.208,0.253,0.354,0.572,0.438,0.957
		c0.047,0.24,0.07,0.672,0.07,1.297v1.875c0,1.308,0.03,2.134,0.09,2.48c0.06,0.347,0.178,0.679,0.355,0.996h-1.469
		C44.177,20.35,44.083,20.009,44.042,19.618z M43.925,16.478c-0.511,0.208-1.276,0.386-2.297,0.531
		c-0.578,0.083-0.987,0.177-1.227,0.281c-0.24,0.104-0.425,0.257-0.555,0.457c-0.13,0.2-0.195,0.423-0.195,0.668
		c0,0.375,0.142,0.688,0.426,0.938c0.284,0.25,0.699,0.375,1.246,0.375c0.542,0,1.023-0.118,1.445-0.355s0.731-0.562,0.93-0.973
		c0.151-0.317,0.227-0.786,0.227-1.406V16.478z"/>
	<path fill="#364C96" d="M46.964,18.165l1.391-0.219c0.078,0.558,0.295,0.984,0.652,1.281c0.356,0.297,0.855,0.445,1.496,0.445
		c0.646,0,1.125-0.132,1.438-0.395s0.469-0.571,0.469-0.926c0-0.317-0.138-0.567-0.414-0.75c-0.193-0.125-0.672-0.284-1.438-0.477
		c-1.031-0.261-1.746-0.485-2.145-0.676s-0.701-0.453-0.906-0.789c-0.206-0.336-0.309-0.707-0.309-1.113
		c0-0.37,0.084-0.712,0.254-1.027c0.169-0.315,0.399-0.577,0.691-0.785c0.219-0.161,0.517-0.298,0.895-0.41
		c0.377-0.112,0.782-0.168,1.215-0.168c0.651,0,1.223,0.094,1.715,0.281s0.855,0.441,1.09,0.762s0.396,0.749,0.484,1.285
		l-1.375,0.188c-0.063-0.427-0.244-0.76-0.543-1c-0.3-0.239-0.723-0.359-1.27-0.359c-0.646,0-1.107,0.107-1.383,0.32
		c-0.276,0.214-0.414,0.464-0.414,0.75c0,0.183,0.057,0.347,0.172,0.492c0.114,0.151,0.294,0.276,0.539,0.375
		c0.141,0.052,0.555,0.172,1.242,0.359c0.995,0.266,1.688,0.483,2.082,0.652c0.393,0.169,0.702,0.415,0.926,0.738
		c0.224,0.323,0.336,0.724,0.336,1.203c0,0.469-0.137,0.91-0.41,1.324s-0.668,0.734-1.184,0.961s-1.099,0.34-1.75,0.34
		c-1.078,0-1.9-0.224-2.465-0.672C47.48,19.709,47.12,19.045,46.964,18.165z"/>
</g>
</svg>
