<?xml version="1.0" encoding="utf-8"?>
<!DOCTYPE svg PUBLIC "-//W3C//DTD SVG 1.1//EN" "http://www.w3.org/Graphics/SVG/1.1/DTD/svg11.dtd">
<svg version="1.1" id="Layer_1" xmlns="http://www.w3.org/2000/svg" xmlns:xlink="http://www.w3.org/1999/xlink" x="0px" y="0px"
	 width="494px" height="30px" viewBox="0 0 494 30" enable-background="new 0 0 494 30" xml:space="preserve">
<g>
	<path fill="#364C96" d="M8.042,16.962l1.43-0.125c0.067,0.573,0.225,1.043,0.473,1.41c0.247,0.367,0.631,0.664,1.152,0.891
		c0.521,0.227,1.106,0.34,1.758,0.34c0.578,0,1.088-0.086,1.531-0.258c0.442-0.172,0.772-0.407,0.988-0.707
		c0.216-0.3,0.324-0.626,0.324-0.98c0-0.359-0.104-0.673-0.313-0.941c-0.208-0.269-0.552-0.493-1.031-0.676
		c-0.308-0.12-0.987-0.306-2.039-0.559c-1.052-0.252-1.789-0.491-2.211-0.715C9.558,14.355,9.15,14,8.882,13.575
		c-0.269-0.424-0.402-0.899-0.402-1.426c0-0.578,0.164-1.118,0.492-1.621c0.328-0.502,0.807-0.884,1.438-1.145
		c0.63-0.26,1.331-0.391,2.102-0.391c0.849,0,1.598,0.137,2.246,0.41s1.147,0.676,1.496,1.207c0.349,0.531,0.536,1.133,0.563,1.805
		l-1.453,0.109c-0.078-0.724-0.343-1.271-0.793-1.641c-0.451-0.37-1.116-0.555-1.996-0.555c-0.917,0-1.585,0.168-2.004,0.504
		c-0.419,0.336-0.629,0.741-0.629,1.215c0,0.412,0.148,0.75,0.445,1.016c0.292,0.266,1.053,0.538,2.285,0.816
		c1.231,0.279,2.077,0.522,2.535,0.73c0.667,0.308,1.159,0.697,1.477,1.168c0.317,0.472,0.477,1.015,0.477,1.629
		c0,0.609-0.175,1.184-0.523,1.723c-0.349,0.539-0.851,0.958-1.504,1.258c-0.654,0.3-1.39,0.449-2.207,0.449
		c-1.037,0-1.905-0.151-2.605-0.453c-0.701-0.302-1.25-0.757-1.648-1.363S8.063,17.728,8.042,16.962z"/>
	<path fill="#364C96" d="M24.729,17.97l1.453,0.18c-0.229,0.849-0.654,1.508-1.273,1.977c-0.62,0.469-1.412,0.703-2.375,0.703
		c-1.214,0-2.176-0.374-2.887-1.121s-1.066-1.796-1.066-3.145c0-1.396,0.359-2.479,1.078-3.25c0.719-0.771,1.651-1.156,2.797-1.156
		c1.109,0,2.016,0.378,2.719,1.133c0.703,0.755,1.055,1.818,1.055,3.188c0,0.083-0.003,0.208-0.008,0.375h-6.188
		c0.052,0.911,0.31,1.609,0.773,2.094c0.463,0.484,1.042,0.727,1.734,0.727c0.516,0,0.956-0.136,1.32-0.406
		C24.227,18.996,24.516,18.563,24.729,17.97z M20.112,15.696h4.633c-0.063-0.698-0.24-1.221-0.531-1.57
		c-0.448-0.542-1.029-0.813-1.742-0.813c-0.646,0-1.189,0.216-1.629,0.648C20.402,14.395,20.159,14.973,20.112,15.696z"/>
	<path fill="#364C96" d="M33.362,17.603l1.383,0.18c-0.151,0.953-0.538,1.699-1.16,2.238c-0.623,0.539-1.387,0.809-2.293,0.809
		c-1.136,0-2.048-0.371-2.738-1.113c-0.69-0.742-1.035-1.806-1.035-3.191c0-0.896,0.148-1.68,0.445-2.352s0.749-1.176,1.355-1.512
		c0.606-0.336,1.267-0.504,1.98-0.504c0.901,0,1.638,0.228,2.211,0.684c0.573,0.456,0.94,1.103,1.102,1.941l-1.367,0.211
		c-0.13-0.557-0.361-0.977-0.691-1.258c-0.331-0.281-0.73-0.422-1.199-0.422c-0.708,0-1.284,0.254-1.727,0.762
		c-0.443,0.508-0.664,1.312-0.664,2.41c0,1.114,0.213,1.925,0.641,2.43c0.427,0.505,0.984,0.758,1.672,0.758
		c0.552,0,1.013-0.169,1.383-0.508C33.029,18.826,33.263,18.306,33.362,17.603z M30.104,21.688l0.406-1.383h1.047L31.3,21.142
		c0.442,0.052,0.776,0.188,1,0.41c0.224,0.222,0.336,0.468,0.336,0.738c0,0.391-0.188,0.735-0.563,1.035s-0.94,0.449-1.695,0.449
		c-0.427,0-0.802-0.031-1.125-0.094l0.086-0.914c0.333,0.021,0.578,0.031,0.734,0.031c0.489,0,0.833-0.067,1.031-0.203
		c0.151-0.104,0.227-0.231,0.227-0.383c0-0.094-0.03-0.177-0.09-0.25c-0.06-0.073-0.171-0.136-0.332-0.188
		C30.748,21.723,30.479,21.693,30.104,21.688z"/>
	<path fill="#364C96" d="M35.425,16.493c0-1.536,0.427-2.674,1.281-3.414c0.713-0.614,1.583-0.922,2.609-0.922
		c1.141,0,2.073,0.374,2.797,1.121c0.724,0.748,1.086,1.78,1.086,3.098c0,1.067-0.16,1.907-0.48,2.52s-0.787,1.087-1.398,1.426
		c-0.612,0.339-1.28,0.508-2.004,0.508c-1.162,0-2.101-0.372-2.816-1.117C35.783,18.967,35.425,17.895,35.425,16.493z
		 M36.698,11.118c-0.005-0.542,0.143-0.974,0.445-1.297c0.297-0.323,0.677-0.484,1.141-0.484c0.323,0,0.763,0.141,1.32,0.422
		c0.307,0.156,0.552,0.234,0.734,0.234c0.167,0,0.294-0.045,0.383-0.137c0.088-0.091,0.151-0.272,0.188-0.543h1.016
		c-0.016,0.594-0.166,1.039-0.449,1.336c-0.284,0.297-0.645,0.445-1.082,0.445c-0.328,0-0.761-0.146-1.297-0.438
		c-0.349-0.188-0.604-0.281-0.766-0.281c-0.177,0-0.32,0.063-0.43,0.188c-0.115,0.125-0.169,0.31-0.164,0.555H36.698z M36.87,16.493
		c0,1.063,0.231,1.858,0.695,2.387c0.463,0.528,1.047,0.793,1.75,0.793c0.698,0,1.278-0.266,1.742-0.797
		c0.463-0.531,0.695-1.341,0.695-2.43c0-1.026-0.233-1.803-0.699-2.332c-0.466-0.528-1.046-0.793-1.738-0.793
		c-0.703,0-1.287,0.263-1.75,0.789C37.102,14.637,36.87,15.431,36.87,16.493z"/>
	<path fill="#364C96" d="M50.526,17.97l1.453,0.18c-0.229,0.849-0.654,1.508-1.273,1.977c-0.62,0.469-1.412,0.703-2.375,0.703
		c-1.214,0-2.176-0.374-2.887-1.121s-1.066-1.796-1.066-3.145c0-1.396,0.359-2.479,1.078-3.25c0.719-0.771,1.651-1.156,2.797-1.156
		c1.109,0,2.016,0.378,2.719,1.133c0.703,0.755,1.055,1.818,1.055,3.188c0,0.083-0.003,0.208-0.008,0.375h-6.188
		c0.052,0.911,0.31,1.609,0.773,2.094c0.463,0.484,1.042,0.727,1.734,0.727c0.516,0,0.956-0.136,1.32-0.406
		C50.023,18.996,50.313,18.563,50.526,17.97z M45.909,15.696h4.633c-0.063-0.698-0.24-1.221-0.531-1.57
		c-0.448-0.542-1.029-0.813-1.742-0.813c-0.646,0-1.189,0.216-1.629,0.648C46.199,14.395,45.956,14.973,45.909,15.696z"/>
	<path fill="#364C96" d="M53.183,18.165l1.391-0.219c0.078,0.558,0.295,0.984,0.652,1.281c0.356,0.297,0.855,0.445,1.496,0.445
		c0.646,0,1.125-0.132,1.438-0.395s0.469-0.571,0.469-0.926c0-0.317-0.138-0.567-0.414-0.75c-0.193-0.125-0.672-0.284-1.438-0.477
		c-1.031-0.261-1.746-0.485-2.145-0.676s-0.701-0.453-0.906-0.789c-0.206-0.336-0.309-0.707-0.309-1.113
		c0-0.37,0.084-0.712,0.254-1.027c0.169-0.315,0.399-0.577,0.691-0.785c0.219-0.161,0.517-0.298,0.895-0.41
		c0.377-0.112,0.782-0.168,1.215-0.168c0.651,0,1.223,0.094,1.715,0.281s0.855,0.441,1.09,0.762s0.396,0.749,0.484,1.285
		l-1.375,0.188c-0.063-0.427-0.244-0.76-0.543-1c-0.3-0.239-0.723-0.359-1.27-0.359c-0.646,0-1.107,0.107-1.383,0.32
		c-0.276,0.214-0.414,0.464-0.414,0.75c0,0.183,0.057,0.347,0.172,0.492c0.114,0.151,0.294,0.276,0.539,0.375
		c0.141,0.052,0.555,0.172,1.242,0.359c0.995,0.266,1.688,0.483,2.082,0.652c0.393,0.169,0.702,0.415,0.926,0.738
		c0.224,0.323,0.336,0.724,0.336,1.203c0,0.469-0.137,0.91-0.41,1.324s-0.668,0.734-1.184,0.961s-1.099,0.34-1.75,0.34
		c-1.078,0-1.9-0.224-2.465-0.672C53.699,19.709,53.339,19.045,53.183,18.165z"/>
</g>
</svg>
