<?xml version="1.0" encoding="utf-8"?>
<!DOCTYPE svg PUBLIC "-//W3C//DTD SVG 1.1//EN" "http://www.w3.org/Graphics/SVG/1.1/DTD/svg11.dtd">
<svg version="1.1" id="Layer_1" xmlns="http://www.w3.org/2000/svg" xmlns:xlink="http://www.w3.org/1999/xlink" x="0px" y="0px"
	 width="31px" height="31px" viewBox="0 0 31 31" enable-background="new 0 0 31 31" xml:space="preserve">
<path fill="#FFFFFF" d="M2.915,29.875l-2.728-2.73c-0.25-0.25-0.25-0.66,0-0.908l7.521-7.521c-1.224-1.895-1.943-4.148-1.943-6.566
	C5.766,5.449,11.215,0,17.912,0c6.7,0,12.15,5.449,12.15,12.148c0,6.699-5.45,12.148-12.15,12.148c-2.419,0-4.669-0.719-6.564-1.943
	l-7.521,7.521C3.575,30.125,3.166,30.125,2.915,29.875 M17.912,20.437c4.572,0,8.29-3.717,8.29-8.289s-3.718-8.289-8.29-8.289
	c-4.57,0-8.287,3.717-8.287,8.289S13.342,20.437,17.912,20.437"/>
</svg>
